<svg xmlns="http://www.w3.org/2000/svg" xmlns:xlink="http://www.w3.org/1999/xlink" height="336" preserveAspectRatio="none" viewBox="-120 -168 240 336" width="240" xmlns:v="https://vecta.io/nano"><symbol id="A" viewBox="-500 -500 1000 1000" preserveAspectRatio="xMinYMid"><path d="M-270 460h160m-90-10L0-460l200 910m-90 10h160m-390-330h240" stroke="#000" stroke-width="80" stroke-linecap="square" stroke-miterlimit="1.5" fill="none"/></symbol><symbol id="B" viewBox="-600 -600 1200 1200" preserveAspectRatio="xMinYMid"><path d="M0-500c100 250 355 400 355 685a150 150 0 0 1-300 0 10 10 0 0 0-20 0c0 200 50 215 95 315h-260c45-100 95-115 95-315a10 10 0 0 0-20 0 150 150 0 0 1-300 0c0-285 255-435 355-685z"/></symbol><g stroke="#000"><rect width="239" height="335" x="-119.5" y="-167.5" rx="12" fill="#fff"/><use xlink:href="#B" height="164.8" width="164.8" x="-82.4" y="-82.4" stroke-width="100" stroke-dasharray="100,100" stroke-linecap="round"/></g><use xlink:href="#B" height="164.8" width="164.8" x="-82.4" y="-82.4" stroke="#fff" stroke-width="50"/><use xlink:href="#B" height="164.8" width="164.8" x="-82.4" y="-82.4"/><path fill="#fff" d="M0-34.098l8.434 8.434L0-17.229l-8.434-8.434M0-31.688l-6.025 6.025L0-19.639l6.025-6.025m3.615 1.205l2.41 2.41-1.205 1.205 1.205 1.205 1.205-1.205 2.41 2.41-3.615 3.615-1.205-1.205-1.205 1.205 1.205 1.205-1.205 1.205-2.41-2.41 2.41-2.41 1.205 1.205 1.205-1.205-3.615-3.615-1.205 1.205-1.205-1.205m10.844 3.615l8.434 8.434-8.434 8.434-8.434-8.434m8.434-6.025l-6.025 6.025 6.025 6.025 6.025-6.025M0-29.279l3.615 3.615L0-22.049l-3.615-3.615M16.869-12.41l3.615 3.615-3.615 3.615-3.615-3.615M4.82-19.639l2.41 2.41-1.205 1.205-2.41-2.41M2.41-17.229l1.205 1.205L2.41-14.82l1.205 1.205L4.82-14.82l1.205 1.205-2.41 2.41L4.82-10 3.615-8.795 4.82-7.59l1.205-1.205L7.229-7.59 6.025-6.385 7.229-5.18l-2.41 2.41 1.205 1.205L4.82-.361 3.615-1.566 1.205.844 2.41 2.049 3.615.844l2.41 2.41 1.205-1.205L6.025.844 7.229-.361 8.434.844 7.229 2.049l1.205 1.205L4.82 6.869l1.205 1.205 2.41-2.41 1.205 1.205-2.41 2.41-1.205-1.205L4.82 9.279l1.205 1.205-1.205 1.205-2.41-2.41 2.41-2.41-1.205-1.205L2.41 6.869 1.205 5.664 2.41 4.459l1.205 1.205L4.82 4.459l-2.41-2.41-3.615 3.615 2.41 2.41L0 9.279-1.205 8.074-2.41 9.279-6.025 5.664-4.82 4.459l2.41 2.41 1.205-1.205-1.205-1.205 1.205-1.205-1.205-1.205-1.205 1.205-1.205-1.205-3.615 3.615 1.205 1.205-1.205 1.205-2.41-2.41 2.41-2.41-2.41-2.41-2.41 2.41-2.41-2.41 1.205-1.205 1.205 1.205 2.41-2.41-1.205-1.205 6.025-6.025-2.41-2.41 1.205-1.205-2.41-2.41-1.205 1.205-3.615-3.615 2.41-2.41-1.205-1.205 3.615-3.615 1.205 1.205-3.615 3.615 1.205 1.205 1.205-1.205 1.205 1.205 2.41-2.41 7.229 7.229L2.41-14.82l-1.205-1.205m6.025 3.615l1.205 1.205L7.229-10l-1.205-1.205m-4.82-2.41L0-12.41l1.205 1.205L2.41-12.41m-7.229-4.82l-2.41 2.41 1.205 1.205 1.205-1.205 1.205 1.205 1.205-1.205M9.639-5.18l1.205 1.205-2.41 2.41-1.205-1.205m4.82 0L15.664.844l-3.615 3.615-1.205-1.205 2.41-2.41-2.41-2.41M-3.615-13.615L-4.82-12.41l1.205 1.205-2.41 2.41L-4.82-7.59-2.41-10l1.205 1.205L0-10m3.615 3.615L2.41-5.18l1.205 1.205L4.82-5.18M-9.639-17.229l-1.205 1.205 1.205 1.205 1.205-1.205m2.41 2.41l-1.205 1.205 1.205 1.205 1.205-1.205m3.615 3.615l-2.41 2.41L-2.41-5.18l1.205-1.205L0-5.18l1.205-1.205m0 2.41L0-2.771l1.205 1.205L2.41-2.771M-4.82-7.59l-2.41 2.41 1.205 1.205-1.205 1.205 1.205 1.205-1.205 1.205 2.41 2.41L-3.615.844-2.41 2.049 0-.361l-2.41-2.41-1.205 1.205-1.205-1.205 1.205-1.205L-4.82-5.18l1.205-1.205M-2.41-5.18l-1.205 1.205 1.205 1.205 1.205-1.205m-15.664-13.254l8.434 8.434-8.434 8.434-8.434-8.434m8.434-6.025l-6.025 6.025 6.025 6.025 6.025-6.025m-6.025-3.615l3.615 3.615-3.615 3.615-3.615-3.615m10.844 6.025l-1.205 1.205 2.41 2.41 1.205-1.205m8.434 10.844l2.41 2.41-1.205 1.205-1.205-1.205-2.41 2.41-1.205-1.205 1.205-1.205-1.205-1.205-1.205 1.205-1.205-1.205 1.205-1.205 1.205 1.205 1.205-1.205L0 11.688"/><text font-size="20" font-family="Bariol" text-anchor="middle" y="100.4">www.me.uk</text><text font-size="20" font-family="Bariol" text-anchor="middle" y="120.4">/cards/</text><use xlink:href="#A" height="32" width="32" x="-114.4" y="-156"/><use xlink:href="#B" height="26.769" width="26.769" x="-111.784" y="-119"/><g transform="rotate(180)"><use xlink:href="#A" height="32" width="32" x="-114.4" y="-156"/><use xlink:href="#B" height="26.769" width="26.769" x="-111.784" y="-119"/></g></svg>