<?xml version="1.0" encoding="UTF-8" standalone="no"?>
<!-- Generator: Adobe Illustrator 9.0, SVG Export Plug-In  -->
<!-- This set of SVG files is a complete cards game with figures, numbers	-->
<!--    and backs of cards completely designed in SVG.				-->
<!--    									-->
<!--    Copyright (C) 2004 David Bellot						-->
<!--										-->
<!--    This library is free software; you can redistribute it and/or		-->
<!--    modify it under the terms of the GNU Lesser General Public		-->
<!--    License as published by the Free Software Foundation; either		-->
<!--    version 2 of the License, or (at your option) any later version		-->
<!--										-->
<!--    This library is distributed in the hope that it will be useful,		-->
<!--    but WITHOUT ANY WARRANTY; without even the implied warranty of		-->
<!--    MERCHANTABILITY or FITNESS FOR A PARTICULAR PURPOSE.  See the GNU	-->
<!--    Lesser General Public License for more details.				-->
<!--										-->
<!--    You should have received a copy of the GNU Lesser General Public	-->
<!--    License along with this library; if not, write to the Free Software	-->
<!--    Foundation, Inc., 59 Temple Place, Suite 330, Boston, MA 02111-1307  USA-->
<!--										-->
<!--    Contact the author David Bellot at bellot@stat.berkeley.edu or 		-->
<!--    david.bellot@free.fr or yimyom@users.sourceforge.net			-->
<svg
   xmlns:dc="http://purl.org/dc/elements/1.1/"
   xmlns:cc="http://web.resource.org/cc/"
   xmlns:rdf="http://www.w3.org/1999/02/22-rdf-syntax-ns#"
   xmlns:svg="http://www.w3.org/2000/svg"
   xmlns="http://www.w3.org/2000/svg"
   xmlns:sodipodi="http://sodipodi.sourceforge.net/DTD/sodipodi-0.dtd"
   xmlns:inkscape="http://www.inkscape.org/namespaces/inkscape"
   width="208"
   height="303"
   viewBox="0 0 167.08008 242.66699"
   xml:space="preserve"
   id="svg2"
   sodipodi:version="0.32"
   inkscape:version="0.45.1"
   sodipodi:docname="Card_back_03.svg"
   inkscape:output_extension="org.inkscape.output.svg.inkscape"
   sodipodi:docbase="C:\Documents and Settings\Flanker\Desktop"
   version="1.0"><metadata
   id="metadata58"><rdf:RDF><cc:Work
       rdf:about=""><dc:format>image/svg+xml</dc:format><dc:type
         rdf:resource="http://purl.org/dc/dcmitype/StillImage" /></cc:Work></rdf:RDF></metadata><defs
   id="defs56" /><sodipodi:namedview
   inkscape:window-height="573"
   inkscape:window-width="791"
   inkscape:pageshadow="2"
   inkscape:pageopacity="0.0"
   guidetolerance="10.0"
   gridtolerance="10.0"
   objecttolerance="10.0"
   borderopacity="1.0"
   bordercolor="#666666"
   pagecolor="#ffffff"
   id="base"
   width="208px"
   height="303px"
   inkscape:showpageshadow="false"
   inkscape:zoom="1.2428555"
   inkscape:cx="104.42505"
   inkscape:cy="151.66687"
   inkscape:window-x="236"
   inkscape:window-y="156"
   inkscape:current-layer="svg2" />
	<g
   id="Layer_x0020_1"
   style="fill:#190c80;fill-rule:nonzero;stroke:#190c80;stroke-width:0.10381997;stroke-miterlimit:4"
   transform="matrix(1,0,0,1.0029884,0,-0.362593)">
		<path
   style="fill:#ffffff;stroke:#000000;stroke-width:0.49925458"
   d="M 166.83008,235.54785 C 166.83008,239.32324 163.74414,242.41699 159.95996,242.41699 L 7.1113281,242.41699 C 3.3364258,242.41699 0.25,239.32324 0.25,235.54785 L 0.25,7.1201172 C 0.25,3.3452148 3.3364258,0.25 7.1113281,0.25 L 159.95996,0.25 C 163.74414,0.25 166.83008,3.3452148 166.83008,7.1201172 L 166.83008,235.54785 z "
   id="path5" />
		<path
   style="fill-rule:evenodd;stroke-width:0.10381997;stroke-miterlimit:10"
   d="M 137.48242,0.4995117 L 141.63281,0.4995117 L 166.54004,25.498047 L 166.54004,29.664063 L 137.48242,0.4995117 z "
   id="path7" />
		<path
   style="fill-rule:evenodd;stroke-width:0.10381997;stroke-miterlimit:10"
   d="M 155.12402,0.4995117 L 159.27539,0.4995117 L 166.54004,7.7910156 L 166.54004,11.957031 L 155.12402,0.4995117 z "
   id="path9" />
		<path
   style="fill-rule:evenodd;stroke-width:0.10381997;stroke-miterlimit:10"
   d="M 120.87695,0.4995117 L 125.02832,0.4995117 L 166.54004,42.163574 L 166.54004,46.32959 L 120.87695,0.4995117 z "
   id="path11" />
		<path
   style="fill-rule:evenodd;stroke-width:0.10381997;stroke-miterlimit:10"
   d="M 87.640625,0.4716797 L 91.791016,0.4716797 L 166.54004,75.494629 L 166.70703,79.702637 L 87.640625,0.4716797 z "
   id="path13" />
		<path
   style="fill-rule:evenodd;stroke-width:0.10381997;stroke-miterlimit:10"
   d="M 71.021484,0.4580078 L 75.172363,0.4580078 L 166.54004,92.160156 L 166.49805,96.256836 L 71.021484,0.4580078 z "
   id="path15" />
		<path
   style="fill-rule:evenodd;stroke-width:0.10381997;stroke-miterlimit:10"
   d="M 54.416504,0.4580078 L 58.567871,0.4580078 L 166.54004,108.82568 L 166.60938,112.92236 L 54.416504,0.4580078 z "
   id="path17" />
		<path
   style="fill-rule:evenodd;stroke-width:0.10381997;stroke-miterlimit:10"
   d="M 37.812012,0.4580078 L 41.963379,0.4580078 L 166.54004,125.49121 L 166.54004,129.65723 L 37.812012,0.4580078 z "
   id="path19" />
		<path
   style="fill-rule:evenodd;stroke-width:0.10381997;stroke-miterlimit:10"
   d="M 21.20752,0.4580078 L 25.358398,0.4580078 L 166.54004,142.15625 L 166.54004,146.32324 L 21.20752,0.4580078 z "
   id="path21" />
		<path
   style="fill-rule:evenodd;stroke-width:0.10381997;stroke-miterlimit:10"
   d="M 5.612793,0.8881836 L 8.8642578,0.4301758 L 166.54004,158.82227 L 166.54004,162.98926 L 4.9208984,0.9580078"
   id="path23" />
		<path
   style="fill-rule:evenodd;stroke-width:0.10381997;stroke-miterlimit:10"
   d="M 104.27246,0.4995117 L 108.42383,0.4995117 L 166.54004,58.829102 L 166.54004,62.995117 L 104.27246,0.4995117 z "
   id="path25" />
		<path
   style="fill-rule:evenodd;stroke-width:0.10381997;stroke-miterlimit:10"
   d="M 0.4931641,12.998535 L 0.4931641,8.8320313 L 166.54004,175.4873 L 166.54004,179.6543 L 4.644043,17.165039"
   id="path27" />
		<path
   style="fill-rule:evenodd;stroke-width:0.10381997;stroke-miterlimit:10"
   d="M 0.4931641,29.664063 L 0.4931641,25.498047 L 166.54004,192.15332 L 166.54004,196.31934 L 4.644043,33.830566"
   id="path29" />
		<path
   style="fill-rule:evenodd;stroke-width:0.10381997;stroke-miterlimit:10"
   d="M 0.4931641,46.32959 L 0.4931641,42.163574 L 166.54004,208.81934 L 166.54004,212.98535 L 4.644043,50.496094"
   id="path31" />
		<path
   style="fill-rule:evenodd;stroke-width:0.10381997;stroke-miterlimit:10"
   d="M 0.4931641,62.995117 L 0.4931641,58.829102 L 166.54004,225.48438 L 166.54004,229.65137 L 4.644043,67.161621"
   id="path33" />
		<path
   style="fill-rule:evenodd;stroke-width:0.10381997;stroke-miterlimit:10"
   d="M 0.4931641,96.32666 L 0.4931641,92.160156 L 149.93555,242.14941 L 145.78418,242.14941 L 4.644043,100.49268"
   id="path35" />
		<path
   style="fill-rule:evenodd;stroke-width:0.10381997;stroke-miterlimit:10"
   d="M 0.4931641,112.99219 L 0.4931641,108.82568 L 133.33008,242.14941 L 129.17969,242.14941 L 4.644043,117.1582"
   id="path37" />
		<path
   style="fill-rule:evenodd;stroke-width:0.10381997;stroke-miterlimit:10"
   d="M 0.4931641,79.660645 L 0.4931641,75.494629 L 164.46484,240.06738 L 163.42578,241.1084 L 161.35156,241.1084 L 4.644043,83.827148"
   id="path39" />
		<path
   style="fill-rule:evenodd;stroke-width:0.10381997;stroke-miterlimit:10"
   d="M 0.4931641,129.65723 L 0.4931641,125.49121 L 116.72656,242.14941 L 112.57422,242.14941 L 0.4931641,129.65723 z "
   id="path41" />
		<path
   style="fill-rule:evenodd;stroke-width:0.10381997;stroke-miterlimit:10"
   d="M 0.4931641,146.32324 L 0.4931641,142.15625 L 100.12109,242.14941 L 95.969727,242.14941 L 0.4931641,146.32324 z "
   id="path43" />
		<path
   style="fill-rule:evenodd;stroke-width:0.10381997;stroke-miterlimit:10"
   d="M 0.4931641,162.98926 L 0.4931641,158.82227 L 83.516602,242.14941 L 79.365723,242.14941 L 0.4931641,162.98926 z "
   id="path45" />
		<path
   style="fill-rule:evenodd;stroke-width:0.10381997;stroke-miterlimit:10"
   d="M 0.4931641,179.6543 L 0.4931641,175.4873 L 66.911621,242.14941 L 62.760742,242.14941 L 0.4931641,179.6543 z "
   id="path47" />
		<path
   style="fill-rule:evenodd;stroke-width:0.10381997;stroke-miterlimit:10"
   d="M 0.4931641,196.31934 L 0.4931641,192.15332 L 50.307129,242.14941 L 46.15625,242.14941 L 0.4931641,196.31934 z "
   id="path49" />
		<path
   style="fill-rule:evenodd;stroke-width:0.10381997;stroke-miterlimit:10"
   d="M 0.4931641,212.98535 L 0.4931641,208.81934 L 33.702637,242.14941 L 29.55127,242.14941 L 0.4931641,212.98535 z "
   id="path51" />
		<path
   style="fill-rule:evenodd;stroke-width:0.10381997;stroke-miterlimit:10"
   d="M 0.4931641,229.65137 L 0.4931641,225.48438 L 17.097656,242.14941 L 12.946777,242.14941 L 0.4931641,229.65137 z "
   id="path53" />
	</g>
</svg>