<svg xmlns="http://www.w3.org/2000/svg" xmlns:xlink="http://www.w3.org/1999/xlink" width="240" height="336" viewBox="-120 -168 240 336" preserveAspectRatio="none" xmlns:v="https://vecta.io/nano"><defs><path id="A" d="M-82.4-130.4H82.4v260.8H-82.4z"/></defs><symbol id="B" viewBox="-500 -500 1000 1000" preserveAspectRatio="xMinYMid"><path d="M50-460h200m-100 0v710a100 100 0 0 1-400 0v-30" stroke="#000" stroke-width="80" stroke-linecap="square" stroke-miterlimit="1.5" fill="none"/></symbol><symbol id="C" viewBox="-600 -600 1200 1200" preserveAspectRatio="xMinYMid"><path d="M0-500c100 250 355 400 355 685a150 150 0 0 1-300 0 10 10 0 0 0-20 0c0 200 50 215 95 315h-260c45-100 95-115 95-315a10 10 0 0 0-20 0 150 150 0 0 1-300 0c0-285 255-435 355-685z"/></symbol><symbol id="D" preserveAspectRatio="none" viewBox="0 0 1300 2000"><path fill="#fc4" d="M1220.029 34.26c-31.411 0-56.875 47.01-56.875 105 .016 40.087 12.395 76.66 31.904 94.26l-45.74 45.74 45.775 45.775c-19.517 17.576-31.909 54.135-31.939 94.225 0 33.251 8.373 62.892 21.438 82.131.936 3.778 47.697 25.613 51.822 18.447 23.424-12.987 40.49-53.103 40.49-100.578-.016-40.087-12.395-76.66-31.904-94.26l45.74-45.74-45.775-45.775c19.517-17.576 31.909-54.135 31.939-94.225 0-57.99-25.464-105-56.875-105zm0 45c17.949 0 32.5 26.863 32.5 60s-14.551 60-32.5 60-32.5-26.863-32.5-60 14.551-60 32.5-60zm-525.988 89.875c-63.888 6.439-127.843 16.954-191.059 30.264C520.499 262.589 450.951 302.611 460 375c1.818 14.546 11.572 23.142 23.318 26.568-3.254 26.675-20.68 58.987-43.074 53.242 7.569.241 14.737-4.762 14.756-14.811.046-25-50-40.227-50 15 0 26.45 31.971 41.442 60.645 32.246-5.21 1.798-10.493 2.94-15.67 3.631l.078 267.125C439.618 747.053 423.324 740 405 740c-31.5 0-57.035 20.819-57.035 46.5.001 1.034.046 2.068.133 3.1h-.133l-.041 7.125c24.462 30.001 46.929 62.78 67.725 98.105l334.146.17.205-74.244h-.15a23.92 23.92 0 0 0 .15-2.184c0-18.09-20.147-32.756-45-32.756-9.376.597-16.979 2.632-23.643 5.924 5.907-2.95 12.529-4.939 20.475-5.805l10.533-15.461 64.762 44.113 10.307-14.789-64.469-44.322-6.746 9.342L842.18 579.936l64.361 44.25 9.813-15.131-63.992-43.994-3.303 4.779 51.697-75.883 64.342 44.234 10.621-14.572-57.68-39.656L910 485l-8.746 8.227 3.992-5.859C901.463 489.022 896.383 490 890 490c-25 0-55-5-75-5-9.747 0-27.808-5.939-44.799-11.939C759.827 476.51 742.85 481.788 730 485c-17.632 4.408-50.808-10.615-58.533-14.361-10.537 15.724-24.314 25.315-38.316 29.898 26.181-8.657 51.552-34.883 56.256-86.09C714.145 408.959 735 391.293 735 370c0-55.227-55-45-55-10 0 9.54 3.412 14.963 8.104 17.482-80.306-31.389 38.064-123.362 5.938-208.348zm525.988 80.836l29.289 29.289-29.289 29.289-29.289-29.289zm0 109.289c17.949 0 32.5 26.863 32.5 60s-14.551 60-32.5 60-32.5-26.863-32.5-60 14.551-60 32.5-60zM485.406 476.125c.02.161.047.315.068.475l-.047-.309a47.21 47.21 0 0 0-1.15.779l1.129-.945zm-5.578 4.258L480 515h380L660.043 802.215l-.043 6.488v-9.312h-.158c.088-.936.141-1.872.158-2.811 0-23.296-21.266-42.182-47.5-42.182-24 0-43.843 15.807-47.305 34.867-1.571-25.298-24.09-44.266-51.678-44.266-17.981 0-33.796 8.063-43.002 20.223 2.624-3.491 5.776-6.673 9.391-9.441l-.078-275.398zm93.699 3.898c.145.26.306.512.459.768l-.326-.533c-15.416 16.862-37.059 24.866-55.102 23.094 18.021 1.715 39.625-6.349 54.969-23.328zm407.186 32.014L750 855v40l175.369-257.896-117.824 173.639c36.997 2.217 73.31 9.251 108.229 20.754-34.921-11.474-71.255-18.488-108.285-20.67l-19.682 28.854c62.063 1.184 122.669 16.544 177.816 44.676l6.477 3.377c41.326 22.005 79.452 51.257 112.672 86.998C1164.954 1060.997 1210 1178 1210 1300c0 34.756-3.656 69.106-10.85 102.477 8.28 4.288 16.801 8.447 25.652 12.512 8.662-37.515 13.082-75.735 13.082-114.988 0-98.303-27.457-193.56-77.514-273.693l-1.082-.807c42.156 31.268 89.847 55.215 140.711 70.936V899.504c-51.712-25.693-109.972-86.673-101.289-151.568-35.121-24.628-71.449-48.975-108.842-72.967 74.94 48.014 145.354 97.111 210.131 146.242V708.438c-104.607-68.651-200.637-128.399-299.561-181.967l-.076.113zM335 520l-20 8.48v229.73l20 22.578zm55 18.598c-13.902 0-27.804 8.598-10.607 25.795-34.393-34.393-34.393 55.608 0 21.215-34.393 34.393 55.608 34.393 21.215 0 26.217 26.217 32.801-20.199 18.947-28.246-4.32-2.509-10.627-1.289-18.947 7.031 17.197-17.197 3.294-25.795-10.607-25.795zM480 570v25h324.059L820 570zm518.945 48.588l.879.531-.879-.529zm-609.553 34.404c-13.902 0-27.802 8.598-10.605 25.795-34.393-34.393-34.393 55.606 0 21.213-34.393 34.393 55.606 34.393 21.213 0 26.217 26.217 32.803-20.199 18.949-28.246-4.32-2.509-10.629-1.287-18.949 7.033 17.197-17.197 3.294-25.795-10.607-25.795zm398.221 7.242l-10.24 14.834 64.652 44.449 10.238-14.836zM470.211 765.633l-.611.848.611-.848zm-8.271 23.836a1.59 1.59 0 0 0 .096.326v.006c-.041-.096-.073-.209-.096-.332zm218.414 2.787c-.484.252-.963.51-1.437.775.473-.267.955-.522 1.438-.775zm337.207 51.076l.951 2.371-.951-2.371zm3.082 7.533l.924 2.199-.924-2.199zm3.682 8.494l1.564 3.43-1.564-3.43zm3.088 6.707l1.805 3.799-1.805-3.799zm2.732 5.684l4.053 8.051-4.053-8.051zm5.029 9.93l2.48 4.664-2.48-4.664zm2.772 5.191l5.82 10.357c3.094 5.319 6.314 10.578 9.66 15.775-2.844-4.408-5.607-8.855-8.262-13.348l-1.399-2.428-5.82-10.357zm-243.164 17.867l7.479 21.449L800 920H430l12.707 24.699 366.205-.299-.236-.65 4.275 11.275C1015 960 1132.607 1148.098 1109.844 1349.836c11.2 7.608 22.842 15.12 34.775 22.375-6.506-9.679-6.512-16.274 2.018-18.82 2.228-17.597 3.363-35.431 3.363-53.391 0-5.358-.102-10.704-.303-16.037-13.439-10.034-11.804-19.084-1.939-27.594-2.57-24.912-7.326-49.394-14.147-73.135-18.283-13.575-11.454-18.32-7.744-24.162-8.214-23.168-18.448-45.491-30.582-66.658-8.366-4.101-14.681-8.716-9.766-16.145-12.678-19.88-27.105-38.604-43.174-55.893-5.104-5.491-10.342-10.805-15.707-15.936-3.975-2.376-8.099-4.444-10.641-9.793-23.462-20.774-49.104-38.225-76.285-52.068l-5.564-2.773c-27.634-13.472-56.792-23.251-86.816-29.045l-12.717-2.207c-13.146-2.028-26.437-3.294-39.834-3.816zm259.014 8.832l3.027 4.623-3.027-4.623zm-536.111 50.332c-13.902 0-27.802 8.598-10.605 25.795-34.393-34.393-34.393 55.606 0 21.213-34.393 34.393 55.606 34.393 21.213 0 26.217 26.217 32.801-20.199 18.947-28.246-4.32-2.509-10.627-1.287-18.947 7.033 17.197-17.197 3.294-25.795-10.607-25.795zm88.131 0c-13.902 0-27.802 8.598-10.605 25.795-34.393-34.393-34.393 55.606 0 21.213-34.393 34.393 55.606 34.393 21.213 0 26.217 26.217 32.803-20.199 18.949-28.246-4.32-2.509-10.629-1.287-18.949 7.033 17.197-17.197 3.294-25.795-10.607-25.795zm227.352 41.049l17.113 35.029c102.383 30.854 178.311 129.819 182.9 248.609l27.855 24.229c.166-4.251.25-8.524.25-12.818 0-147.049-98.337-269.388-228.119-295.049z"/></symbol><symbol id="E" preserveAspectRatio="none" viewBox="0 0 1300 2000"><path fill="red" d="M339.994 0c47.44 47.6 100.553 102.806 140.34 165.766 119.757-48.484 358.765-76.598 478.27-25.84C1001.156 89.327 1052.45 43.591 1107.316 0zm880.035 79.26a32.5 60 0 0 0-32.5 60 32.5 60 0 0 0 32.5 60 32.5 60 0 0 0 32.5-60 32.5 60 0 0 0-32.5-60zm0 170.711l-29.289 29.289 29.289 29.289 29.289-29.289zm0 109.289a32.5 60 0 0 0-32.5 60 32.5 60 0 0 0 32.5 60 32.5 60 0 0 0 32.5-60 32.5 60 0 0 0-32.5-60zm-231.07 184.303l-20.252 29.541C1089.338 643.25 1201.114 717.777 1300 792.445v-47.484c-93.594-69.531-198.437-135.485-311.041-201.398zm-708.953 1.639c-47.874 23.233-95.508 47.342-142.25 72.621 53.195 30.118 100.356 65.097 142.42 105.293zm110.213 14.801a15 15 0 0 0-10.826 25.605 15 15 0 1 0 21.215-21.215 15 15 0 0 0-10.389-4.391zM480 635.211l.35 120.244c9.258-6.577 20.694-10.455 33.168-10.455 27.587 0 50.107 18.968 51.678 44.266 3.462-19.06 23.305-34.867 47.305-34.867 26.234 0 47.5 18.886 47.5 42.182-.018.939-.07 1.875-.158 2.811H660l.043 2.969 115.779-166.945zm-90.387 39.184A15 15 0 0 0 378.787 700 15 15 0 0 0 400 678.787a15 15 0 0 0-10.387-4.393zm887.897 130.152c-11.905 22.593 8.882 47.772 22.49 59.201v-42.523l-22.49-16.678zM808.912 944.4l.229.6h.383zm-157.629.129L443.35 945l-.643-.301c17.481 34.53 33.433 71.124 47.986 109.848l-.217.453h160.898zM812.941 955l20.225 49.951c129.782 25.661 228.119 148 228.119 295.049 0 4.295-.084 8.568-.25 12.818L1110 1350c22.608-201.901-94.999-390-297.059-395zm-295.258 8.902c13.902 0 27.804 8.598 10.607 25.795 8.32-8.32 14.627-9.543 18.947-7.033 13.854 8.047 7.27 54.464-18.947 28.246 34.393 34.393-55.606 34.393-21.213 0-34.393 34.393-34.393-55.606 0-21.213-17.197-17.197-3.296-25.795 10.605-25.795zm-10.605 25.795a15 15 0 0 0 21.213 21.213 15 15 0 0 0-21.213-21.213zm98.736-25.795c13.902 0 27.804 8.598 10.607 25.795 8.32-8.32 14.629-9.543 18.949-7.033 13.854 8.047 7.268 54.464-18.949 28.246 34.393 34.393-55.606 34.393-21.213 0-34.393 34.393-34.393-55.606 0-21.213-17.197-17.197-3.296-25.795 10.605-25.795zm-10.605 25.795a15 15 0 0 0 21.213 21.213 15 15 0 0 0-21.213-21.213zm254.875 50.475c47.763 99.005 107.681 181.409 182.805 248.648-4.298-119.019-80.226-217.986-182.805-248.648zm360.389 18.264c35.988 73.868 55.295 156.645 55.295 241.564 0 43.186-4.993 85.818-14.437 127.031 15.9 6.787 32.086 13.22 48.67 19.332V1096.43c-31.215-9.648-61.238-22.384-89.527-37.994z"/></symbol><symbol id="F" preserveAspectRatio="none" viewBox="0 0 1300 2000"><path fill="#44f" d="M515 515v55h55v-55zm27.5 10a17.5 17.5 0 1 1 0 35 17.5 17.5 0 1 1 0-35zm92.5-10v55h55v-55zm27.5 10a17.5 17.5 0 1 1 0 35 17.5 17.5 0 1 1 0-35zm92.5-10v55h55v-55zm27.5 10a17.5 17.5 0 1 1 0 35 17.5 17.5 0 1 1 0-35zm-270 245a37.5 37.5 0 0 0-37.412 40H475v85h75v-85h-.125a37.5 37.5 0 0 0-37.375-40zm-107.964 0c-20.711 0-37.5 16.789-37.5 37.5a37.17 37.17 0 0 0 .088 2.5h-.088v12.25L415.435 895h26.601v-85h-.125a37.48 37.48 0 0 0 .125-2.5c0-20.711-16.789-37.5-37.5-37.5zm208.026 17.857A32.438 32.143 0 0 0 580.125 820a32.438 32.143 0 0 0 .076 2.143h-.076V895H645v-72.857h-.108A32.438 32.143 0 0 0 645 820a32.438 32.143 0 0 0-32.437-32.143zm90 22.143a27.438 25.929 0 0 0-27.437 25.929 27.438 25.929 0 0 0 .064 1.729h-.064v58.771H730v-58.771h-.091a27.438 25.929 0 0 0 .091-1.729A27.438 25.929 0 0 0 702.563 810zm308.252-253.598l-18.305 30.584 34.25 20.664 18.201-30.412zm63.314 38.625l-17.897 29.902 33.609 21.732 18.305-30.584zm63.057 39.055l-18.586 31.053 33.148 22.504L1171 655.473zm62.393 40.164l-19.252 32.164 32.434 23.697 19.941-33.316zm61.088 42.342l-19.557 32.678 32.561 23.484 19.609-32.764zm-409.548 31.354L875 765c50 35 90-35 50-70l-26.957-17.971zM900 720c8.284 0 15 6.716 15 15s-6.716 15-15 15-15-6.716-15-15 6.716-15 15-15zm98.39-101.744l-42.328-24.751-36.535 51.871L940 660c20.554 14.388 39.417 11.032 51.729-.341zM965 615c8.284 0 15 6.716 15 15s-6.716 15-15 15-15-6.716-15-15 6.716-15 15-15zM810 810l55.745 7.935C864.146 807.908 859.18 798.032 850 790l-19.349-12.899zm183.336-60.138l-58.954 88.209c39.148 14.882 76.532 35.642 110.85 61.702-27.363-46.311-45.1-97.165-51.896-149.911zM925 395s-15-5-20-5-10 15-20 15-10 5-10 5c-.619.316 22.903 3.625 30-5 3.177-3.861 20.184-2.235 20.184-2.235M850 395c15 0 35.006-26.643 45-27l25-1-4 8s-13 2-18 2-23 23-33 23-15-5-15-5zm62-43c26.021-3.859 44.26-17.774 28-17-21 1-29 11-33 16m2-154l-8 8s-31-12-48-10c-16.167 1.902-78 33-78 33 14-18 87-62 134-31zm-38 50.5a8 17.5 0 0 1-8 17.5 8 17.5 0 0 1-8-17.5 8 17.5 0 0 1 8-17.5 8 17.5 0 0 1 8 17.5"/></symbol><symbol id="G" preserveAspectRatio="none" viewBox="0 0 1300 2000"><path d="M280 545l35-16.519v229.553l-34.825-34.919zm150.213 375L415 895h376.461l8.588 25zM480 595h324.058l-28.447 40H480zm744.878 820.024c8.586-37.55 13.006-75.771 13.006-115.024 0-98.303-27.456-193.56-77.682-273.819 16.515 12.177 33.745 23.163 50.965 32.635 35.295 73.487 54.602 156.264 54.602 241.184 0 43.186-4.993 85.818-15.428 126.604l-25.462-11.58zM955.311 846.655L985 800c5.534 23.766 11.843 47.199 18.271 70.58M480.485 166.004C487.466 177.24 493.99 188.501 500 200c143.731-30.414 291.688-46.681 435-30 7.479-10.101 15.302-19.991 23.62-30.093-119.521-50.739-358.528-22.626-478.135 26.097z"/></symbol><symbol id="H" preserveAspectRatio="none" viewBox="0 0 1300 2000"><path stroke="#44f" stroke-linecap="round" stroke-linejoin="round" stroke-width="6" fill="none" d="M1299.894 708.358c-134.669-88.378-255.093-161.953-386.235-226.559M778.787 854.444c90.113 301.87 247.363 490.955 521.131 591.898M791.461 895H415.846m384.236 25H430.213m378.079 25H443.35m461.445-457.358L701.696 785.807m279.016-269.513L749.869 855.346m-332.676-374.08c-94.149 42.491-187.727 87.113-279.979 136.686M335 520.115v260.673m115-288.905v266.326M280 545.221v178.096m35-194.787v229.68m165-277.793v275.179M480 515h380L660.087 802.68M480 570h340.894M480 595h324.058M480 635h295.611m-375.005-70.607a15 15 0 0 1-21.213 21.213 15 15 0 0 1 21.213-21.213h0m0 0c8.32-8.32 14.628-9.542 18.948-7.033 13.854 8.047 7.269 54.464-18.948 28.246C435 620 345 620 379.393 585.607 345 620 345 530 379.393 564.393 345 530 435 530 400.607 564.393h0M400 678.787A15 15 0 0 1 378.787 700 15 15 0 0 1 400 678.787h0m0 0c8.32-8.32 14.628-9.542 18.948-7.033 13.854 8.047 7.269 54.464-18.948 28.246 34.393 34.393-55.607 34.393-21.213 0-34.393 34.393-34.393-55.607 0-21.213-34.393-34.393 55.607-34.393 21.213 0h0M335 620h115m-115 20h115m-43.181 20H450m-115 0h36.841m52.83 20H450m-115 0h19.415m69.965 20H450m-115 0h19.86m51.233 20H450m-115 0h37.857m50.072-160H450m-115 0h22.327m69.085 20H450m-115 0h18.844m54.717 20H450m-115 0h36.26m4.935-100H450m-117.077 20H450m-50.003 20H450m-115 0h44.968M335 740h115m-115 20h22.617M335 780h10.861m182.43 209.697a15 15 0 0 1-21.213 21.213 15 15 0 0 1 21.213-21.213h0m88.131 0a15 15 0 0 1-21.213 21.213 15 15 0 0 1 21.213-21.213h0m-88.131 0c8.32-8.32 14.628-9.542 18.948-7.033 13.854 8.047 7.269 54.464-18.948 28.246 34.393 34.393-55.607 34.393-21.213 0-34.393 34.393-34.393-55.607 0-21.213-34.393-34.393 55.607-34.393 21.213 0h0m88.131 0c8.32-8.32 14.628-9.542 18.948-7.033 13.854 8.047 7.269 54.464-18.948 28.246 34.393 34.393-55.607 34.393-21.213 0-34.393 34.393-34.393-55.607 0-21.213-34.393-34.393 55.607-34.393 21.213 0h0M750 895v-74.245h-.15c.083-.726.133-1.455.15-2.184 0-18.09-20.147-32.755-45-32.755-20.619 1.313-32.663 9.571-45 22.886v-9.311h-.158c.088-.936.141-1.873.158-2.812 0-23.296-21.266-42.18-47.5-42.18-24 0-43.842 15.805-47.304 34.866-1.571-25.298-24.09-44.265-51.678-44.265-28.433 0-51.482 20.147-51.482 44.8-.332-.77-.017-2.522 0-3.3 0-25.681-25.536-46.5-57.036-46.5s-57.036 20.819-57.036 46.5a37.37 37.37 0 0 0 .134 3.1h-.134v7.609m652.668-270.786L750 895m168.036-411.038l57.683 39.657m-198.346 151.45l64.654 44.449m-54.413-59.284l64.782 44.537m-10.283-124.882l64.429 44.295m-54.18-59.124l63.991 43.994m-15.758-115.209l64.502 44.345M713.049 770.533l64.079 44.054m-54.163-59.112l64.741 44.509m168.357-206.48c125.646 72.812 241.832 150.244 344.012 227.75M968.653 572.916c120.717 70.348 232.564 144.902 331.47 219.592M988.787 543.79c112.823 65.736 217.732 131.707 311.364 201.277m-.233 257.835C1170.517 952.17 1080 835.642 1080 700a302.39 302.39 0 0 1 1.527-30.393m218.43 426.817c-65.948-20.389-126.565-54.605-176.691-100.681C1037.937 917.307 990 810.925 990 700c0-27.631 2.975-54.981 8.761-81.686m301.166 360.378C1187.557 928.803 1110 822.758 1110 700a290.62 290.62 0 0 1 .247-11.977m189.686 272.348C1198.031 911.709 1128.365 813.379 1128.365 700m171.591 358.208c-57.894-18.849-111.089-48.937-155.476-88.738C1064.777 898.002 1020 801.071 1020 700a342.73 342.73 0 0 1 6.202-64.877m5.159 95.16A337.65 337.65 0 0 1 1030 700c0-19.933 1.765-39.703 5.216-59.138m25.96 201.404c-15.198-33.322-25.059-68.626-29.097-104.85m90.139 197.731c-23.371-26.07-42.628-54.722-57.391-85.124m139.076 154.489c-18.526-11.92-36.048-25.27-52.353-39.969a393.01 393.01 0 0 1-20.26-19.621m152.656 99.877c-20.095-7.628-39.527-16.685-58.102-27.097M1040.409 716.5A333.11 333.11 0 0 1 1040 700c0-15.856 1.109-31.476 3.259-46.802m20.697 171.206c-9.888-24.89-16.822-50.778-20.601-77.229m70.834 164.638c-13.523-17.358-25.32-35.699-35.287-54.801m108.73 126.476c-10.046-7.496-19.73-15.459-29.01-23.871l-2.923-2.677m120.107 76.64a423.46 423.46 0 0 1-20.863-9.364M972.1 887.733c41.326 22.005 79.451 51.257 112.671 86.998C1164.954 1060.998 1210 1178 1210 1300c0 34.756-3.656 69.106-10.738 102.455M965.622 884.356l6.478 3.377m-184.346-47.697c62.115.829 122.721 16.189 177.868 44.321m228.865 494.922l-1.463 8.411m4.954-34.358l-1.084 9.354m3.785-67.731l.026 5.046c0 12.671-.431 25.198-1.33 37.618m.537-65.327l.544 12.183m-3.185-42.029c.629 5.246 1.172 10.511 1.63 15.791m-12.271-73.995c4.015 16.224 7.193 32.719 9.505 49.411m-15.187-70.322l3.366 11.928m-11.897-37.935l4.091 11.843m-28.202-67.245c7.178 13.941 13.658 28.272 19.415 42.93m-30.407-63.03l3.309 5.804m-18.369-29.997l6.392 9.858m-48.858-63.962c12.64 13.746 24.375 28.278 35.163 43.488m-50.705-59.543l4.695 4.677m-23.156-21.756l5.516 4.895m-60.291-45.345c14.272 8.833 28.084 18.588 41.358 29.23m-60.374-40.305l4.308 2.39m-25.475-13.176l4.208 2.021m-73.854-27.381c17.617 4.605 34.914 10.432 51.783 17.432m-73.577-22.471l8.305 1.766m-33.768-6.024l8.863 1.286M782.442 850a389.11 389.11 0 0 1 35.284 1.603m373.678 446.018l.01 2.379a473.38 473.38 0 0 1-1.404 36.437m-.888-82.928l.176 1.815m-11.052-66.069a469.21 469.21 0 0 1 8.297 43.048m-46.144-145.107c6.654 12.956 12.691 26.256 18.091 39.847m-85.279-136.456c11.953 13.002 23.078 26.723 33.339 41.067M985.989 918.367c13.859 8.556 27.277 18 40.176 28.3m-146.233-73.984A388.32 388.32 0 0 1 929.5 889.43m-149.041-29.425l1.984-.005a380.46 380.46 0 0 1 33.905 1.514m365.759 435.512l.01 2.974a462.6 462.6 0 0 1-1.516 37.435m-11.656-146.923c3.569 14.583 6.431 29.392 8.564 44.37m-45.975-144.265c6.911 13.338 13.151 27.052 18.698 41.082m-85.208-135.789c.01.011.021.022.031.034 12.593 13.549 24.26 27.909 34.955 42.966M978.964 925.571a397.86 397.86 0 0 1 42.671 29.934m-145.717-73.581c17.62 4.56 34.906 10.399 51.741 17.463m-142.356-29.376a371.82 371.82 0 0 1 32.018 1.628m352.64 422.409L1170 1300c0 13.691-.626 27.312-1.861 40.82m-11.912-150.994a444.57 444.57 0 0 1 9.832 50.85m-47.036-147.389c7.972 15.025 15.059 30.557 21.226 46.5m-87.587-138.684l3.824 4.058c13.185 14.186 25.323 29.289 36.358 45.169M967.721 933.769c17.312 10.137 33.938 21.714 49.717 34.659m-149.186-75.046a367.96 367.96 0 0 1 59.014 19.859m-138.693-30.154c10.837.184 21.623.856 32.331 2.005m338.98 404.817L1160 1300c0 15.302-.802 30.514-2.382 45.572m-12.379-158.048a433.09 433.09 0 0 1 11.564 59.71m-48.927-153.185c9.511 17.397 17.793 35.514 24.786 54.194m-91.65-144.241a392.41 392.41 0 0 1 8.405 8.767c14.192 15.269 27.138 31.628 38.766 48.895M956.329 939.438c20.77 11.594 40.578 25.286 59.139 40.951M859.845 902.42c23.806 5.365 47.027 13.183 69.345 23.312M791.056 893.9c11.691.287 23.317 1.156 34.844 2.593m323.798 387.47c.201 5.333.302 10.68.302 16.038 0 17.96-1.136 35.793-3.364 53.39m-13.024-170.155c6.82 23.741 11.575 48.223 14.145 73.135m-52.471-163.956c12.134 21.168 22.367 43.49 30.581 66.659m-40.348-82.803l.447.703m-59.328-72.529a380.47 380.47 0 0 1 15.706 15.934c16.069 17.288 30.496 36.012 43.175 55.892M939.713 942.581c27.181 13.844 52.823 31.295 76.285 52.069m-81.85-54.842l5.565 2.774m-92.382-31.818c30.025 5.794 59.182 15.573 86.816 29.045m-139.354-35.031a342.22 342.22 0 0 1 39.822 3.779M812.941 955C1015 960 1132.608 1148.099 1110 1350m-276.834-345.048c129.782 25.661 228.118 148 228.118 295.048 0 4.295-.084 8.568-.25 12.819M850.279 1039.98c102.383 30.854 178.311 129.821 182.901 248.611m126.906-262.495c50.343 80.345 77.799 175.602 77.799 273.905 0 39.253-4.42 77.474-12.884 115M807.783 810.758c85.668 5.133 167.901 36.182 237.421 89.013m165.259 158.688c35.998 73.843 55.305 156.621 55.305 241.54 0 43.186-4.993 85.818-14.636 127.002M1185 1155c1.593 6.717-11.273 15.521-28.738 19.663s-32.914 2.055-34.507-4.663 11.273-15.521 28.738-19.663 32.914-2.055 34.507 4.663h0m-60.902 8.634c1.599-6.554 7.381-15.459 15.902-23.634 12.952-12.426 27.327-18.462 32.106-13.48 3.594 3.746 1.32 12.074-5.825 21.547m7.172 20.739c9.837 3.822 14.627 9.135 13.808 13.872-1.175 6.803-16.466 9.84-34.154 6.784-14.641-2.53-26.335-8.441-29.261-14.262M1205 1265c.388 6.893-13.825 13.298-31.746 14.307s-32.763-3.761-33.151-10.654 13.825-13.298 31.746-14.307 32.763 3.761 33.151 10.654h0m-61.472-2.202c2.725-6.171 9.983-13.921 19.808-20.472 14.934-9.957 30.145-13.373 33.975-7.629 2.88 4.319-.823 12.118-9.521 20.188m3.416 21.677c9.012 5.491 12.794 11.563 11.156 16.082-2.352 6.491-17.939 6.794-34.814.677-13.969-5.063-24.442-12.938-26.3-19.181m62.595 98.78c-1.396 6.761-16.777 9.3-34.356 5.671s-30.697-12.052-29.301-18.813 16.777-9.3 34.356-5.671 30.697 12.052 29.302 18.813h0M1145 1355c4.219-5.264 13.224-10.89 24.402-14.696 16.991-5.786 32.569-5.179 34.795 1.356 1.673 4.914-3.908 11.5-14.387 17.064m-48.786 11.226c-.708-1.658-1.101-3.201-1.141-4.574m47.66 15.175c7.299 7.622 9.394 14.462 6.65 18.409M1140 1050c3.732 5.808-5.484 18.382-20.585 28.085s-30.367 12.861-34.099 7.053 5.484-18.382 20.585-28.085 30.367-12.861 34.099-7.053h0m-54.586 28.355c-.667-6.714 1.833-17.033 7.158-27.572 8.095-16.02 19.652-26.484 25.813-23.37 4.633 2.341 5.252 10.952 1.655 22.259m13.648 17.184c10.548.341 16.829 3.764 17.629 8.504 1.149 6.807-12.268 14.747-29.967 17.734-14.651 2.472-27.644.776-32.336-3.743M1065 955c4.699 5.058-2.153 19.062-15.303 31.278s-27.62 18.02-32.318 12.962 2.153-19.061 15.303-31.278 27.62-18.02 32.319-12.962h0m-48.723 37.547c-1.842-6.49-1.203-17.089 2.178-28.403 5.139-17.198 14.667-29.537 21.282-27.56 4.974 1.486 7.102 9.853 5.559 21.617m16.467 14.504c10.442-1.526 17.229.734 18.853 5.258 2.332 6.498-9.472 16.681-26.366 22.746-13.984 5.02-27.072 5.644-32.489 2.024M970 885c5.801 3.743 2.615 19.004-7.117 34.086s-22.323 24.275-28.124 20.532-2.615-19.004 7.117-34.086S964.199 881.257 970 885h0m-37.958 48.403c-3.386-5.836-5.38-16.264-4.894-28.063.739-17.934 6.93-32.242 13.828-31.958 5.187.214 9.313 7.797 10.718 19.578m19.536 9.995c9.743-4.055 16.878-3.538 19.568.446 3.863 5.722-5.065 18.502-19.942 28.545-12.314 8.314-24.844 12.146-30.986 9.974m-86.497-93.96c6.702 1.657 8.642 17.126 4.335 34.55s-13.233 30.207-19.935 28.55-8.642-17.125-4.335-34.55 13.233-30.207 19.935-28.55h0m-20.188 58.104c-5.097-4.42-10.369-13.637-13.739-24.954-5.123-17.203-3.913-32.745 2.704-34.716 4.975-1.482 11.34 4.351 16.494 15.038m21.723 3.112c7.899-6.998 14.815-8.826 18.653-5.931 5.511 4.158 1.216 19.144-9.595 33.473-8.948 11.861-19.555 19.554-26.07 19.493m18.844 100.725l14.13-49.456m38.89 73.018l27.277-47.734m15.37 78.286l38.569-42.075m.232 82.579l46.158-31.956m-12.778 85.727l49.922-21.395m-28.928 78.493l51.747-10.349M1060.66 1270h51.088M829.096 994.024l47.183-31 38.939 72.845 81.216-11.523.232 82.579 83.302 32.376-28.928 78.493L1111.67 1270l-42.681 49.562M812.941 955l49.257 57.306 80.297-24.172 15.37 78.286 84.959 8.548-12.778 85.727 72.358 46.824L1060.66 1270l51.462 54.437-16.398 15.709m-23.409-18.552l40.061 2.861M1265 1432.805V1190m15 248.834V1200m15 244.992V1210m-240.23-358.926c36.785-10.586 25.203 47.882 76.035 16.617m-40.827-90.436c-56.952 26.845-5.251 49.721-35.892 72.302m67.304 97.642c29.345-13.893 35.536 40.248 74.977-4.423m-65.228-74.5c-45.772 40.184 4.026 48.741-12.084 76.043m94.257 75.307c22.994-12.038 42.632 30.836 67.862-23.852m-83.347-52.623c-32.861 48.928 10.495 47.177 8.641 72.541m74.702-19.918c-18.662 48.534 6.531 48.678 18.994 60.839M1021.91 735.665c40.802.465 9.283 53.476 67.827 40.606m-9.637-98.793c-62.251 7.22-19.164 46.432-58.298 57.084m20.036-88.99c3.424 15.26 1.5 33.099 38.262 31.711m2.225 59.849c-8.363 2.374-16.843 4.527-27.325 2.867m10-25c.585 17.408 8.793 17.8 16.88 18.462m.506 6.547c-7.606 5.03-16.194 11.522-17.386 19.991m41.529 63.177c-7.902 5.113-15.732 10.298-27.114 11.892m2.268-26.83c6.126 17.898 14.995 13.974 23.58 12.304m1.461 5.206c-6.074 7.244-13.324 16.539-11.906 25.531m67.74 58.067c-2.597 8.29-5.446 16.557-12.574 24.409m-15.428-22.067c15.791 9.606 20.261 1.53 25.614-5.167m4.855 6.357c.153 8.638 1.209 18.249 7.169 23.476m68.812 37.555c-2.294 6.665-5.26 13.264-11.007 19.595m-15.428-22.067c12.148 7.39 17.596 4.315 21.9-.546m8.691 5.311c.409 7.603 1.899 15.387 7.046 19.901m24.975-191.566c-11.672 22.62 9.234 47.843 22.858 59.259m-50.456-80.093c-44.63-8.553-117.281-16.949-109.582-43.703 2.978-8.935 11.278-16.095 17.504-20.425m8.9 46.626c-40.416 31.35-11.981 47.824 107.397 53.163m-93.659-9.982c-27.583 58.676 44.248 32.392 96.167 23.126m-76.708 14.091c-13.217 54.272 30.455 34.159 84.751.154m-63.832 32.548c7.836 58.415 38.304 28.026 73.489-20.866m-44.747 49.476c27.89 70.964 38.938 3.9 50.734-37.555m-17.677 57.736c8.165 16.942 13.815 24.745 17.709 26.21m-406.25-154.399l-1.473 2.175m68.879-101.678l-2.546 3.759M905.39 802.52l-6.753 9.969m74.564-110.071l-8.423 12.433m-44.738 85.804l-17.512 25.851m87.075-128.54l-21.526 31.776m-26.259 58.525l-28.606 42.228m77.166-113.912l-26.448 39.043M950 695c47.071 37.657-7.779 124.057-56.084 104.85-3.006-1.195-5.987-2.8-8.916-4.85m104.667-95.776C976.948 704.41 962.969 704.079 950 695m-65 100c10.822 8.658 16.257 19.893 17.622 31.828m317.407-467.568c17.949 0 32.5 26.863 32.5 60s-14.551 60-32.5 60-32.5-26.863-32.5-60 14.551-60 32.5-60h0m0-109.289l29.289 29.289-29.289 29.289-29.289-29.289 29.289-29.289m0-170.711c17.949 0 32.5 26.863 32.5 60s-14.551 60-32.5 60-32.5-26.863-32.5-60 14.551-60 32.5-60h0m16.126 440.719c23.557-12.835 40.749-53.071 40.749-100.719-.016-40.087-12.395-76.66-31.904-94.26l45.74-45.74-45.775-45.775c19.517-17.576 31.909-54.135 31.939-94.225 0-57.99-25.464-105-56.875-105s-56.875 47.01-56.875 105c.016 40.087 12.395 76.66 31.904 94.26l-45.74 45.74 45.775 45.775c-19.517 17.576-31.909 54.135-31.939 94.225 0 33.822 8.662 63.909 22.114 83.113m-89.752 77.551c2.218-13.415 11.2-39.855 19.484-44.924 9.531-5.832 45-35 60-35s30 20 60 20c25 0 20 20 0 20s-35-5-35-5c-15.017 16.853-25.13 15.341-35 20-10.111 4.772 15-5 20 5 4.415 8.829-14.557 52.737-19.06 62.898m83.353-87.313C1267.028 537.389 1280 543.16 1280 550c0 8.284-19.028 15-42.5 15s-42.5-6.716-42.5-15c0-4.921 6.713-9.288 17.083-12.023m35.726 26.322c17.824-.296 31.385 3.908 32.19 10.701.975 8.227-17.13 17.135-40.439 19.898s-42.995-1.667-43.97-9.894C1195.012 580.118 1205 570 1230 565m18.249 29.401c17.824-.296 31.385 3.908 32.19 10.701.975 8.227-17.13 17.135-40.439 19.898s-42.995-1.667-43.97-9.894c-.558-4.71 8.702-14.28 31.76-19.443m19.522 29.435c15.641 1.669 32.737 8.906 32.688 15.611-.059 8.121-16.901 14.811-37.619 14.943s-37.465-6.345-37.407-14.466c.034-4.649 9.204-12.955 29.968-15.453M930.064 169.335c.049 25.776-10.023 49.912-9.064 55.665 1.644 9.864 49.733 90.172 52 105 4.139 27.071-37.097 27.445-39 31-1.335 2.494 1 19 1 19 0 5-10 20-10 20s0 10 5 15-25 20-25 20 15 20 15 30-5 25-30 25-55-5-75-5-75-25-85-25m-58.418 10.766c7.608 3.619 40.785 18.642 58.418 14.234 12.85-3.212 29.827-8.489 40.324-11.851M925 395s-15-3-20-3-10 13-20 13-10 5-10 5c-.619.316 22.903 3.625 30-5 3.177-3.861 20.184-2.235 20.184-2.235M850 395c15 0 35.006-26.643 45-27l25-1-4 8s-13 2-18 2-23 23-33 23-15-5-15-5h0m62-74c-15.119.102-26.392 34.914 0 31 26.021-3.859 44.26-17.774 28-17-21 1-29 11-33 16m2-154l-8 8s-31-12-48-10c-16.167 1.902-78 33-78 33 14-18 87-62 134-31h0m-114 59c32 5 47-31 103-31m-68 22c-32 29 66 20 66 20m-393.083-67.562C520.498 262.589 450.951 302.611 460 375c5 40 70 35 70 0 0-25-30-20-30-5s10 20 10 20m13.082-194.768c19.867 64.441-51.42 104.549-42.266 177.782 2.366 18.925 15.741 22.625 29.178 17.564m29.675-198.735C564.97 258.151 493.65 297.295 500 370m58.388-181.325c26.985 64.09-37.166 103.385-39.893 168.971m58.214-172.686C607.464 251.85 532.78 303.149 530 370m62.928-187.396c32.856 69.93-46.198 118.309-47.052 184.481C545 435 620 420 620 385s-51.825-36.649-50-5 38.517 12.693 30 5m13.388-205.941c28.949 66.232-46.492 117.819-47.341 183.619-.201 15.589 3.85 25.987 10.211 32.334m57.975-218.902c25.537 63.44-43.112 119.56-48.86 181.856m34.673 27.205C650.461 441.037 735 412.87 735 370c0-55.227-55-45-55-10 0 34.65 45 15 25-5m-49.779-181.637C678.041 237.945 610 312.171 610 350c0 5.093 1.283 9.801 2.3 14.215m62.044-193.27C699.588 234.957 628.809 298.092 635 360c5 50 80 42.131 80 15 0-10-10-20-10-20m-11.077-186.137c32.244 85.257-86.126 177.231-5.655 208.706m-202.841 98.306C454.342 503.044 405 487.859 405 455c0-55.227 50.046-40 50-15-.038 20.557-30 20-30-5m84.928-34.41c.924 17.774-1.03 32.522-4.979 44.565m-9.56-42.229C505.676 462.548 425.847 493.313 420 455c-.754-4.943 0-10 5-20m58.387-33.371C480.063 428.243 462.639 460.556 440 455m133.47 29.539C542.263 518.868 485 516.458 485 470c0-30.414 50-35 50-10 0 30-30 20-30 10m86.762-56.231c1.294 7.935 1.676 15.399 1.285 22.382m-16.809-21.911c.742 13.434-.264 38.129-11.238 50.76-29.332 33.759-58.511 14.889-60 5-.76-5.044 1.667-7.214 5-10m53.844-50.537c-5.943 44.407-17.429 71.915-38.678 69.66m27.832-80.489C547.657 421.343 541.957 442.819 535 460m11.472-83.3c-7.368 23.266-17.816 49.939-27.696 67.154m170.61-29.462C678.846 529.449 564.058 518.475 570 465c5-45 48.843-29.973 50-5 1.184 25.561-30 25-30 5m84.251-48.742c-6.682 41.859-47.137 95.079-75.457 62.598m59.84-63.75c-4.815 30.364-15.689 53.831-42.588 59.055m27.323-65.18c-4.079 23.445-14.001 38.516-23.646 50.383m9.721-61.272c-1.905 17.578-8.152 33.697-15.081 48.143m-8.514-37.785c2.149 9.989 1.73 20.299.14 30.755M339.389-.607C395.396 55.572 459.428 122.369 500 200c143.731-30.414 291.688-46.681 435-30 46.784-63.186 107.047-118.153 172.359-170.041M480.441 165.793c119.651-48.512 358.657-76.625 478.363-26.286"/></symbol><symbol id="I" preserveAspectRatio="none" viewBox="0 0 1300 2000"><path stroke="#44f" stroke-linecap="round" stroke-linejoin="round" stroke-width="3" fill="none" d="M1225 520c0 10 25 10 25 10m-37.917 7.977c6.055 8.81 1.089 22.643 0 22.023m-.033 14.307c6.055 8.81 1.089 22.643 0 22.023m1.511 5.514c6.055 8.81 1.089 22.643 0 22.023m8.489 5.44c6.055 8.81 1.089 22.643 0 22.023M1240 545c2.816 4.39 1.469 7.218 0 10m3.355 20.118c2.816 4.39 1.469 7.218 0 10m0 20c2.816 4.39 1.469 7.218 0 10m0 20c2.816 4.39 1.469 7.218 0 10M934 385c-10.823 1.061-23.081-1.379-33 8m-21-125c-7 1-19 18-19 18m10.437-57.705c2.222 4.098 3.563 9.406 3.563 15.205 0 12.979-6.716 23.5-15 23.5s-15-10.521-15-23.5c0-1.889.142-3.726.411-5.485M786 243c28 0 58-31 77-31 11.499 0 12 13 12 13"/><use xlink:href="#C" height="75" width="75" transform="matrix(.819152 .557516 -.573576 .796216 900.913703 495.911913)"/><use xlink:href="#C" height="75" width="75" transform="matrix(.838671 .529389 -.544639 .815188 834.120833 591.250653)"/><use xlink:href="#C" height="75" width="75" transform="matrix(.838671 .529389 -.544639 .815188 769.120833 689.250653)"/></symbol><rect width="239" height="335" x="-119.5" y="-167.5" rx="12" fill="#fff" stroke="#000"/><use width="164.8" height="260.8" x="-82.4" y="-130.4" xlink:href="#D"/><use transform="rotate(180)" width="164.8" height="260.8" x="-82.4" y="-130.4" xlink:href="#D"/><use width="164.8" height="260.8" x="-82.4" y="-130.4" xlink:href="#E"/><use transform="rotate(180)" width="164.8" height="260.8" x="-82.4" y="-130.4" xlink:href="#E"/><use width="164.8" height="260.8" x="-82.4" y="-130.4" xlink:href="#F"/><use transform="rotate(180)" width="164.8" height="260.8" x="-82.4" y="-130.4" xlink:href="#F"/><use width="164.8" height="260.8" x="-82.4" y="-130.4" xlink:href="#G"/><use transform="rotate(180)" width="164.8" height="260.8" x="-82.4" y="-130.4" xlink:href="#G"/><use width="164.8" height="260.8" x="-82.4" y="-130.4" xlink:href="#H"/><use transform="rotate(180)" width="164.8" height="260.8" x="-82.4" y="-130.4" xlink:href="#H"/><use width="164.8" height="260.8" x="-82.4" y="-130.4" xlink:href="#I"/><use transform="rotate(180)" width="164.8" height="260.8" x="-82.4" y="-130.4" xlink:href="#I"/><use xlink:href="#B" height="32" width="32" x="-114.4" y="-156"/><use xlink:href="#C" height="26.769" width="26.769" x="-111.784" y="-119"/><use xlink:href="#C" height="55.68" width="55.68" x="-91.768" y="-132.16"/><g transform="rotate(180)"><use xlink:href="#B" height="32" width="32" x="-114.4" y="-156"/><use xlink:href="#C" height="26.769" width="26.769" x="-111.784" y="-119"/><use xlink:href="#C" height="55.68" width="55.68" x="-91.768" y="-132.16"/></g><use xlink:href="#A" stroke="#44f" fill="none"/></svg>