<svg version="1" xmlns="http://www.w3.org/2000/svg" width="1776" height="1776" viewBox="0 0 1332.000000 1332.000000"><path d="M229.7.7c-.4.3-1.5.7-2.5.8-2.5.3-9 3.3-12.5 5.8-7 5-13.4 14.3-15.5 22.7-1.6 6.1-1.7 1263.8-.1 1269 .5 1.9 1.2 4.4 1.4 5.5.3 1.1 1.4 3.2 2.5 4.7s2 3 2 3.5c0 2.3 13 12.7 17.3 13.9.4.1 1 .3 1.5.4.4.1 1 .2 1.5.1.4 0 .7.3.7.7 0 .5.8 1 1.8 1.1.9.2 197.5.4 436.7.6 374.2.2 435.7 0 440-1.2 6.6-1.9 10.5-3.7 13.2-6.2 1.2-1.2 2.7-2.1 3.3-2.1.5 0 1-.3 1-.8 0-.4 1.4-2.3 3-4.2 2.8-3.3 6.4-9.8 7.8-14.4.4-1.2.8-286.8.9-634.7.3-561.6.1-633.2-1.2-637-2.7-7.7-5.6-12.6-10.3-17.2-5.5-5.3-10.1-8-17.3-10.1C1100.2.2 1056.2 0 665 0 425.9 0 230 .3 229.7.7z"/></svg>