<svg version="1" xmlns="http://www.w3.org/2000/svg" width="1194.667" height="1194.667" viewBox="0 0 896.000000 896.000000"><path d="M181 1.9c-3.6 1-8.1 2.7-10.1 3.7-9.2 4.8-11.9 6.5-11.9 7.4 0 .6-.4 1-1 1-2.6 0-11.2 11-15.1 19.4-1.7 3.6-3.6 6.6-4.2 6.7-2.2.2-11.2.8-19.7 1.3-4.7.3-8.5.5-8.5.6 0 .1-3.6.3-8 .5-4.4.3-10.7.7-14 1-3.3.3-10 .8-15 1.1-13.4.8-28 4.9-32.3 9.1-.7.7-1.8 1.3-2.3 1.3C37.4 55 24 68.9 24 70.5c0 .7-.3 1.5-.7 1.7-1.5.6-4.5 7-6.3 13.6-1.9 6.7-2.1 17.4-.6 36.9.3 3.5.7 10 1.1 14.6.3 4.6.8 11 1 14.3.3 3.2.7 9.3 1 13.4.4 7.5 1.2 19.3 2.1 30.5.8 10.4 1.6 23.8 1.7 28.7.1 2.7.4 4.8.7 4.8.3 0 .5 2.8.6 6.3.1 5.6.9 18.5 1.9 30.7.7 7.8 1.7 24.3 1.9 30.2 0 3.2.3 5.8.6 5.8s.5 2.6.6 5.8c0 3.1.4 9.7.8 14.7 1 13.8 1.7 23.5 2.1 29 .2 2.7.6 9.5.9 15 .3 5.5.8 11.6 1.1 13.5.2 1.9.7 8.2 1 14 .4 5.8.8 12.5 1 15 .2 2.5.7 8.5 1 13.5.3 4.9.8 11.9 1 15.5.3 3.6.7 9.9 1 14 .3 4.1.7 10.4.9 14 .3 3.6.7 10.3 1 15 .4 4.7.8 11.2 1.1 14.5.3 3.3.8 9.6 1 14 .3 4.4.8 10.5 1 13.5.2 3 .6 9.3.9 14 .6 10.6 1.5 22.5 2.2 31 .5 6.1.9 13 1.9 28 .2 3.6.7 10.1 1.1 14.5.3 4.4.7 10.5.9 13.5.1 3 .4 5.5.5 5.5.1 0 .3 3.4.5 7.5s.6 11.1 1 15.5c.3 4.4.8 10.9 1 14.5.2 3.6.7 9.9 1 14 .3 4.1.7 10.9 1 15 .3 4.1.7 10.6 1 14.5.2 3.8.7 10.6 1 15 .3 4.4.8 10.7 1.1 14 .6 6.5 1.4 18.9 1.8 27 .1 2.8.5 5.5.9 6.2.4.6.3 1.4-.3 1.8-.6.4-.7 1.1-.4 1.7.3.5.8 3.5 1 6.6.1 3.2.6 9.1.9 13.2.3 4.1.8 10.4 1 14 .3 3.6.7 9.6.9 13.5.3 3.8.8 10.9 1.1 15.7.7 9.9.8 10.6 3.1 18.7.9 3.4 2.1 6.1 2.7 6.1.6 0 .8.3.4.6-1.1 1.2 5.3 10.1 11.6 16 5.8 5.6 16 11.6 21.8 12.8 1.3.3 4.4 1 6.9 1.5 2.5.6 10.4.8 17.5.5 7.2-.3 15.4-.7 18.2-.7 2.9-.1 5.3-.4 5.3-.7 0-.3 2.1-.6 4.8-.6 2.6 0 9-.3 14.2-.7 5.2-.4 12.2-.9 15.5-1.2 9.4-.6 21.2-1.5 30-2.1 4.4-.3 10.5-.8 13.5-.9 7.3-.4 23.2-1.5 29.5-2 2.8-.3 8.8-.7 13.5-1 4.7-.3 10.8-.7 13.5-1 2.8-.2 9.7-.8 15.5-1.1 14.8-1 277.3-.9 290 0 5.8.5 12.5 1 15 1.1 2.5.2 8.1.6 12.5.9 4.4.3 11.4.8 15.5 1.1 19.1 1.3 23.8 1.6 28 2 2.5.2 9.5.6 15.5 1 6.1.3 12.6.8 14.5 1 1.9.2 8.2.7 14 1 5.8.3 12.3.8 14.5 1 2.2.2 8.3.6 13.5 1 5.2.3 11.5.8 14 1 9.7 1.1 29 1.3 32.7.4 2.1-.5 4.9-1.2 6.2-1.5 2.6-.5 12.6-5.2 15-6.9.7-.5 2.7-2.2 4.3-3.7 1.6-1.6 3.3-2.8 3.6-2.8 2.8-.2 13.9-19.6 14.7-25.7.2-1.5.5-2.8.6-2.8.4 0 1.7-15.4 2.4-28 .7-12.2 1.7-24.1 2.2-24.8.2-.4-.2-.7-.9-.7-.8 0-.9-.3-.3-.8.6-.4 1.1-1.8 1.2-3.2 0-1.4.4-7 .8-12.5.3-5.5.8-12.9 1-16.5.3-3.6.7-9.7 1-13.5.6-6.8.9-12.1 2-27.5.3-4.1.8-10.4 1.1-14 .2-3.6.7-9.9.9-14 .6-11 1.3-21.6 1.9-29 1.2-14 1.9-23.8 2.1-30.5.2-3.9.4-7 .5-7 .2 0 .3-1 1.4-18.5.7-11.8 1.5-22.8 2.2-30 .2-3 .7-9.1.9-13.5.2-4.4.7-10.9.9-14.4.3-3.5.9-10.4 1.2-15.5 1.4-21.6 2.3-34.8 2.9-42.1.9-12.4 1.7-23.2 2-29.5.2-3.6.4-6.5.5-6.5.1 0 .3-2.9.4-6.5.3-6.3 1.3-19.9 2.1-29 .4-4.4 1.5-20.1 2-29 .1-2.5.6-9 1-14.5 1-13.9 1.4-19.8 1.9-29 .3-4.4.6-8 .6-8 .1 0 .4-3.9 1.4-19.5.4-5.2.9-12 1.1-15 .3-3 .7-9.3 1-14 .3-4.7.8-11.2 1-14.5.3-3.3.7-9.4.9-13.5.2-4.1.7-10.9 1.1-15 .3-4.1.8-10.4 1-14 .4-6.3 1.2-17.7 2-29 .4-6.1 1.4-20.6 2-29 .2-3 .6-9.1 1-13.5 1.2-15.7 2.6-37.7 2.8-43.3.1-1.7.5-3.2 1-3.2.4 0 .4-.7-.1-1.7-.5-.9-.6-2.8-.2-4.2.8-3 .6-22.6-.2-25.7-.4-1.2-1.1-3.9-1.7-6-2.8-10-15.3-24.9-25.5-30.1-11.8-6.2-16.9-7.2-45.1-8.8-13.1-.8-18.7-1.3-19.2-1.9-.3-.3-1.3-.1-2.3.4-1 .5-2.1.6-2.5.2-.3-.4-2.8-.8-5.3-.9-2.6-.1-8.3-.4-12.7-.6l-8-.3-3.5-6.8c-1.9-3.7-5.4-9.2-7.7-12.2-4.1-5.1-13.9-13.2-15.5-12.7-.5.2-.8-.1-.8-.5 0-.8-4.3-2.9-13-6.3C714.1.7 672 .5 450.5.3 202.2.2 187.1.3 181 1.9z"/></svg>