<svg version="1" xmlns="http://www.w3.org/2000/svg" width="962.667" height="962.667" viewBox="0 0 722.000000 722.000000"><path d="M270.8 1.9c-3.1.9-6.3 2.2-7 2.9-.6.6-1.8 1.2-2.4 1.2-.7 0-3.9 2.6-7.1 5.8-5.8 5.8-6.8 7-8.9 10.8-1.1 1.8-2.6 1.9-38 2-20.3.1-39.6.4-42.9.8-8 .8-18.7 6.1-24.7 12.1-2.6 2.6-5 5.6-5.3 6.6-.4 1.1-1 1.9-1.4 1.9-.4 0-1.4 1.8-2.1 4-.7 2.2-1.6 4-1.9 4.1-.6 0-3.3.5-8.1 1.3-1.4.3-5.4 1-9 1.6-3.6.6-7.6 1.3-9 1.6-1.4.3-3.8.7-5.5 1-1.6.3-3.9.7-5 .8-2.4.4-8 1.4-11.5 2.1-1.4.3-4.1.7-6 1-1.9.3-4.6.7-6 1-1.4.3-3.8.7-5.5 1-3.4.5-6.6 1.2-11 2.1-1.6.4-5.6 2-8.9 3.6-15.8 8-24.6 23.5-23.2 41.1.3 4.3.8 8.3 1.1 8.7.2.4.7 2.5 1 4.6.3 2.2.7 4.8.9 5.9 1.2 6.6 3.8 21.4 4.2 23.5.3 1.4 1.3 7.4 2.4 13.5 1 6 2.4 13.5 3 16.5.5 3 1.3 7.3 1.6 9.5.7 5 .9 6 2.9 16.5 1.9 9.8 2.1 11.1 2.9 16.5.3 2.2.8 5.1 1.1 6.5 1.2 6.3 1.5 7.7 2 10.5.3 1.6.8 4.6 1.1 6.5.2 1.9.8 4.8 1.1 6.5.3 1.6.7 3.9.9 5 .7 4.4 1.2 7.1 1.7 10 1.4 7.2 3.9 21.2 4.3 24 .5 3.4 1.6 9.5 2 11 .3 1.2.8 4.3 2.8 16.5.9 5.2 1.8 10.6 2.1 12 .5 2.6.9 4.4 2.5 14 .9 5.3 1.4 7.9 2.5 14.5.3 1.6 1 5.2 1.5 8 1.9 10.1 2.1 11.1 2.5 14.5.3 1.9.8 4.6 1.1 6 .3 1.3.7 3.8 1 5.5.2 1.6.6 4.1.9 5.5.2 1.4.7 3.6 1 5 .2 1.4.7 4.1 1 6 .3 1.9.7 4.6 1 6 .8 4.1 1.7 9.3 2.1 12 .3 1.4.6 3.4.8 4.5.2 1.1 1.4 7.6 2.6 14.5 1.2 6.9 2.4 13.4 2.5 14.5.2 1.1 1.2 7.2 2.4 13.5 1.1 6.3 2.3 12.8 2.6 14.5.2 1.6.7 4.1 1 5.5.3 1.4.8 4.1 1 6 .9 6.1 1.1 6.9 1.7 7.6.4.3.4 1.2.1 2-.3.8 0 2 .6 2.8.6.7.9 1.5.6 1.8-.3.3 0 2.9.5 5.9.6 3 1.3 6.7 1.6 8.4.9 5.4 4.2 24.3 5 28.5.2 1.4.7 3.8.9 5.5.3 1.6.7 4 .9 5.2.3 1.1.8 4.3 1.2 7 .5 2.6.8 5 .9 5.3.1.3.4 1.8.8 3.5.3 1.6.9 4.6 1.1 6.5.3 1.9.8 4.5 1 5.6.2 1.2.7 3.7 1 5.5.3 1.9.8 4.7 1.1 6.4.3 1.6 1 5.5 1.5 8.5 1.6 9.5 2 11.4 2.5 14 .3 1.4.7 3.8 1 5.5.2 1.6.8 5.5 1.4 8.5.5 3 1.2 7.1 1.5 9 .4 1.9 1.1 5.7 1.6 8.5.5 2.7 1.2 6.6 1.5 8.5.3 1.9.8 4.2 1 5 .2.8.6 3.1.9 5.2 3.4 22.9 25.4 38.9 48.2 35 3.8-.6 8.5-1.3 10.4-1.6 4.7-.6 10.1-1.5 18.5-3.1 3.9-.8 8.4-1.6 10-1.9 5.6-.8 16-2.6 18.5-3.1 1.4-.3 3.9-.7 5.5-1 1.7-.3 4.1-.8 5.5-1 1.4-.3 3.9-.7 5.5-1 1.7-.2 3.9-.6 5-.8 2.6-.6 10.4-1.9 13-2.3 1.1-.1 2-.3 2-.4 0-.1 1.1-.3 2.5-.5 2.8-.3 7.2-1.1 14.5-2.5 2.8-.6 6.4-1.2 8-1.4 1.7-.2 6.9-1.1 11.5-2 4.7-.8 9.9-1.8 11.5-2.1 1.7-.3 4.4-.8 6-1.1 1.7-.3 3.9-.7 5-.9 7.8-1 13.1-2 16.5-2.8 10.3-2.6 27.3-3.1 38.1-1.1 4.6.8 10.2 1.7 12.4 2 2.1.2 4.7.7 5.7 1 1.8.5 2.9.7 9.8 1.8 4.3.7 8 1.4 14.5 2.6 2.8.5 6.5 1.2 8.3 1.5 3.6.6 7.8 1.3 10.7 1.9 1.1.2 4 .7 6.5 1 2.5.4 6.5 1.1 9 1.6s6.1 1.2 8 1.5c3.7.5 4.9.7 17.1 3 4.2.8 9.6 1.7 12 2 5 .7 6.4.9 9.9 1.8 1.4.4 3.9.8 5.5 1.1 2.5.3 10.3 1.7 24.5 4.1 1.4.3 3.4.7 4.5.9 1.1.2 4 .7 6.5 1.1 2.5.4 5.4.9 6.5 1.2 13 3 29.8-.7 38-8.3 1.4-1.3 2.9-2.4 3.3-2.4.4 0 2.6-2.9 4.9-6.4 3.7-5.6 5.6-10.3 6.9-17.1 1.3-6.9 1.8-9.2 1.9-10.5.1-.8.5-3.1.9-5s.9-4.9 1.1-6.5c.2-1.7.4-3 .5-3 .1 0 .3-1.1.6-2.5.7-4.3 1.4-8.4 2-11.5.3-1.7.7-4.1.8-5.5.2-1.4.6-3.4.9-4.5.3-1.1.9-3.8 1.2-6 .3-2.3.7-5 .9-6 .2-1.1 1.6-9 3-17.5 1.5-8.5 3.3-18.7 4.1-22.5.8-3.9 1.6-8.6 1.9-10.5.5-4.4 5.5-32.6 6.3-36 .3-1.4.7-3.4.8-4.5.2-1.1.8-5.2 1.5-9 .7-3.9 1.4-8.2 1.6-9.6.2-1.4.8-4.8 1.4-7.5.7-2.7 1.3-6.3 1.6-7.9.5-4.1 1.3-8.5 1.9-11.5.3-1.4.7-3.9 1-5.5.2-1.7.6-4 .9-5.1.2-1.2.7-3.9 1-6 .6-3.9 3-17.3 4.1-22.9.3-1.7.7-3.9.9-5 .5-3.1 1.8-10.8 2.2-13 .3-1.1.7-3.5 1-5.4.3-1.8.7-4.1.9-5 .1-.9.6-3.6 1-6.1.4-2.5.9-5.4 1.1-6.5.3-1.1.7-3.5 1-5.4.3-1.8.8-4.3 1-5.5.9-4.6 2.5-13.9 2.9-16.4.2-1.5.6-3.8.9-5.2.3-1.3.8-4.2 1.2-6.5.3-2.2.9-5.8 1.4-8 .4-2.2.8-4.7.8-5.5.1-.8 1.3-7.6 2.7-15 1.4-7.4 2.7-14.9 2.9-16.5.3-1.7.5-3 .6-3 .1 0 .3-.9.4-2 .2-1.1.8-4.7 1.4-8 .6-3.3 1.3-7.6 1.6-9.5.3-1.9.8-4.6 1.1-6 .2-1.3.7-4 1-6 .3-2 .8-4.7 1.1-6 .3-1.4.7-3.9 1-5.5.4-2.8 1.4-8.4 2.9-16.5 1.6-8.6 2.5-13.8 3-17 .3-1.9.8-4.6 1.1-6 .2-1.4.7-4 .9-5.7.3-1.8.9-5.2 1.4-7.5.5-2.4.9-5 .9-5.8.1-.8 1.1-6.2 2.2-12s2.3-12.3 2.6-14.5c.8-5.4 1.2-8 1.4-8 .1 0 .8-4 1.4-8.5.2-1.4.6-3.6.9-5 .7-2.6 1.3-5.8 2.3-12 .3-1.9.7-4.6 1-6 .3-1.4.7-3.8.9-5.4.2-1.6 1.6-9.2 3.1-17 4.6-24.1 4-33.1-2.9-44.9-2.6-4.4-10.8-12.7-12.6-12.7-.6 0-1.1-.3-1.1-.8 0-.6-11.1-5.5-13-5.8-.6 0-14.3-2.5-16.2-2.8-.7-.2-3.1-.6-5.3-1.1-2.2-.5-4.9-.9-6-1-1.1-.1-3.6-.5-5.5-.8-1.9-.4-4.8-.9-6.5-1.2-1.6-.3-5.5-1-8.5-1.6-3-.5-7.1-1.2-9-1.4-1.9-.3-4.8-.8-6.5-1.2-1.6-.4-3.4-.8-4-.8-7.6-.8-9-1.6-11.7-7.3-5.5-11.6-18.2-20.9-31-22.8-1.8-.3-20.8-.5-42.1-.5l-38.8-.1-2.4-3.8c-5.6-8.9-13.2-15.2-22.5-18.6-5.4-1.9-18.9-2.7-24.8-1.3-2.3.5-5.9 1.2-8 1.5-2 .3-4.8.7-6.2 1-8.7 1.6-18.4 3.4-21.7 3.9-2.1.3-5 .7-6.3 1-1.4.3-5.2 1-8.5 1.6-3.3.6-7.3 1.4-9 1.7-1.6.3-5.2.6-8 .5-5 0-6-.1-17-2.1-3.3-.6-7.3-1.4-9-1.7-1.6-.3-4.3-.8-6-1.1-1.6-.3-3.9-.7-5-.9-1.1-.1-3.6-.5-5.5-.9-1.9-.3-4.6-.8-6-1-1.4-.3-3.6-.7-5-1-1.4-.3-4.5-.9-7-1.2-2.5-.3-5.4-.8-6.5-1.1-5.1-1.3-18.3-1-23.7.6z"/></svg>