<svg xmlns="http://www.w3.org/2000/svg" xmlns:xlink="http://www.w3.org/1999/xlink" width="240" height="336" viewBox="-120 -168 240 336" preserveAspectRatio="none" xmlns:v="https://vecta.io/nano"><defs><path id="A" d="M-82.4-130.4H82.4v260.8H-82.4z"/></defs><symbol id="B" viewBox="-500 -500 1000 1000" preserveAspectRatio="xMinYMid"><path d="M50-460h200m-100 0v710a100 100 0 0 1-400 0v-30" stroke="#000" stroke-width="80" stroke-linecap="square" stroke-miterlimit="1.5" fill="none"/></symbol><symbol id="C" viewBox="-600 -600 1200 1200" preserveAspectRatio="xMinYMid"><path d="M30 150c5 235 55 250 100 350h-260c45-100 95-115 100-350a10 10 0 0 0-20 0 210 210 0 1 1-74-201 10 10 0 0 0 14-14 230 230 0 1 1 220 0 10 10 0 0 0 14 14 210 210 0 1 1-74 201 10 10 0 0 0-20 0z"/></symbol><symbol id="D" preserveAspectRatio="none" viewBox="0 0 1300 2000"><path fill="#fc4" d="M0 2.5V1660l110-110-.018-126.234c105.296-87.528 180.255-182.163 233.801-282.25l-5.742 10.635c139.339-34.523 228.763-151.939 326.875-251.219 98.724-99.899 202.374-184.191 377.621-174.982l21.885-26.592-12.711-.965 3.467.182-.381-234.674c-6.481-3.039-12.977-5.812-19.758-8.469l.096 242.092 2.074.109c-159.047-6.045-265.297 63.26-356.08 148.363 22.003-20.658 44.856-40.363 69.137-58.227l-.137-180.627-41.711 22.193c-.636 3.926-2.025 7.877-3.418 10.664 5 10 10.599 34.355-20 20 15 30-10 25-20 20-9.483 4.741-32.455 9.483-22.014-15.623l29.811-16.09L585 695l-5.035-2.801.258 256.52c-29.078 30.451-58.047 60.053-88.42 86.33 11.695-10.162 23.153-20.849 34.416-31.988-30.273-24.218-62.124-47.482-101.275-67.924-6.813 24.55-14.315 48.867-22.598 73.062l67.293 44.893.184.16c-34.985 27.602-72.212 50.297-113.846 64.631 95.578-192 116.201-403.263 123.262-622.42-17.428-7.747-13.268-13.828-27.006-26.035l.117-1.984C431.014 428.206 390 348.455 390 325v-70c0-10-5-30-5-40s10-80 10-80l-10 5c-21.326 60.667-18.827 125.689-24.732 189.611C360 304.999 310 301.729 310 345c0 37.916 49.696 36.786 71.482 5.906-8.809 15.273-2.759 42.101 1.586 64.871-2.995 47.504-28.272 44.57-38.068 44.223-6.795-.241-10.502-3.349-11.604-7.604 3.975 10.676 29.023 7.363 31.604-17.396 3.774-36.204-60-20-55 25 1.226 11.03 7.257 19.357 15.369 24.953 0 0 34.631 25.047 69.631 15.047 5.769-1.648 10.586-4.383 14.627-7.611l41.859-5.875C441.169 824.334 402.388 1133.537 110 1387.199l-.022 15.73-.119-838.238c-4.802-9.885-4.813-24.568-.006-44.078v-.541C97.595 526.439 97.524 513.807 95 505c0 0-8.695 11.232-18.695 26.232-1.838 2.756-4.227 4.45-6.809 5.268l1.877.395c6.157 2.24 9.932 5.263 9.932 8.59 0 6.904-16.254 12.5-36.305 12.5s-36.305-5.596-36.305-12.5 16.254-12.5 36.305-12.5c3.53 0 6.943.173 10.17.496l1.066.225C50.314 529.013 47.518 519.976 55 510c15-20 16.464-26.464 20-30 4.147-4.147 18.62-4.842 34.848-2.109L109.803 160H140zm284.047 43.188C216.752 54.569 232.09 147.182 175 190c93.311 27.993 143.087-35.436 161.516-80.607zM640 125c63.111 116.225 35 199.881 35 305 0 39.694 23.81 56.979 46.227 54.82 43.937-3.506 110.424-43.307 166.375-66.15C905 414.024 920 397.306 920 370c0-10-5-40.001-39.271-35.008C885.775 268.892 906.967 202.614 865 125zm249.127 293.311l-4.094 2.037.08 296.918c6.692-2.108 13.377-4.054 20.031-5.891l-.412-290.592-15.605-2.473zM340 435c-2.607 2.939-4.409 5.635-5.553 8.07 1.171-2.778 3.047-5.564 5.553-8.07zm-69.898 67.754c-27.606.245-50.727 14.121-75.102 22.246-5.603-.617-10.988-1.7-20 5-1.704 40.187-7.501 76.003-15 110 .007 9.98 6.643 13.344 20 10 25.063 17.576 57.075 51.196 86.773 69.311 4.988-20.198-2.484-46.614-21.773-74.311 12.993 4.354 31.508-2.847 50-10-10.938-17.689-23.686-30.315-44.385-37.537 23.155-.032 39.351-9.013 49.385-22.463-10.786-14.059-23.418-26.339-45-30 18.668-6.676 33.492-17.007 35-40-6.919-1.633-13.528-2.303-19.898-2.246zM39.143 560A35.858 12.5 0 0 1 75 572.5 35.858 12.5 0 0 1 39.143 585a35.858 12.5 0 0 1-35.859-12.5A35.858 12.5 0 0 1 39.143 560zm-1.885 27.5A32.742 12.5 0 0 1 70 600a32.742 12.5 0 0 1-32.742 12.5A32.742 12.5 0 0 1 4.516 600a32.742 12.5 0 0 1 32.742-12.5zm2.742 25A35 12.5 0 0 1 75 625a35 12.5 0 0 1-35 12.5A35 12.5 0 0 1 5 625a35 12.5 0 0 1 35-12.5zm610.322 108.721c5.068.029 10.928 1.904 14.678 3.779 10-5 35-10 20 20 30-15 25 10 20 20 5 10 10.599 34.355-20 20 15 30-10 25-20 20-10 5-35 10-20-20-30 15-25-10-20-20-5-10-10-35 20-20-9.375-18.75-3.125-23.828 5.322-23.779zm0 125c5.068.029 10.928 1.904 14.678 3.779 3.933-1.966 10.187-3.932 15.414-3.77l-14.746 14.529 2.869-2.764-14.053 13.783-33.262 32.771c.059-5.039 1.918-10.832 3.777-14.551-5-10-10-35 20-20-9.375-18.75-3.125-23.828 5.322-23.779z"/></symbol><symbol id="E" preserveAspectRatio="none" viewBox="0 0 1300 2000"><path fill="red" d="M246.471 0L370 150c180.66-37.466 351.908-15.7 520 10L1023.334 0H246.471zm638.316 420.898L570 580l-91.814-52.258-2.654 58.811L580 645l305.053-159.789-.053-.811-.213-63.502zm190.268 52.945l.266 213.346c33.759-38.278 71.635-75.149 114.617-110.734l.09-16.514c-34.8-32.654-68.884-62.029-114.973-86.098zm-754.408 25.67l-31.623 9.654-4.379 13.883 38.002-11.602-2-11.936zm3.471 35.115l-54.023 3.178-10.244 7.115 10.877 4.869 54.576-3.209-1.186-11.953zm560.869.486l-114.758 61.469-.314 177.201c34.85-23.34 72.832-43.004 115.188-56.514l-.115-182.156zm-587.777 36.512c-.589 2.677-2.48 10.377-3.662 11.793l31.779 1.986.008-12.021-28.125-1.758zm-3.662 11.793l-.639-.039c.168.375.388.339.639.039zm-35.928 11.471c-6.031.09 10.896 11.591 14.592 14.352l52.041 6.123.475-12.027-61.166-7.195c-2.921-.894-4.825-1.269-5.941-1.252zm33.008 33.078c12.431 3.658-11.979 11.314-6.178 11.207l36.916 5.545 1.469-11.914-32.207-4.838zm181.434 8.52c-5.895 81.123-15.634 160.54-32.645 237.537 45.209 18.345 84.338 42.848 120.355 70.484l.012-262.834-87.723-45.187zM160 640c-16.58 5.561-33.037 6.415-49.689 2.5l-.154 344.1c88.828-105.753 107.278-197.596 126.27-289.582C216.343 680.41 196.64 661.669 180 650c-13.357 3.344-19.993-.02-20-10zm524.895 2.074l-29.963 15.211A19.91 19.91 0 0 0 665 660c10.345 0 18.857-7.855 19.895-17.926zm-437.264 5.832l6.865 13.521 63.545 12.096.896-12.043-71.307-13.574zm14.979 30.313l3.561 13.258 47.111 10.033 2.355-10.035-53.027-13.256zM665 745a20 20 0 1 0 0 40 20 20 0 1 0 0-40z"/></symbol><symbol id="F" preserveAspectRatio="none" viewBox="0 0 1300 2000"><path fill="#44f" d="M599.754 695H730.09l-.205 15H600.164zm0 130h103.859l-15.189 15h-87.849zm305.34-350.896l-.1 41.316 8.055 12.08-8.111 12.168-.1 41.611 35.854-53.779zm129.521-4.564L995.975 527.5 1035 586.037l-.137-41.668-11.246-16.869 11.135-16.701zm-107.162-44.822l40.881 61.32 29.141-43.711-23.674-5.953-5.467 8.201-7.668-11.506zm40.881 144.246L929.309 627.5l39.025 58.537 39.023-58.537-19.512-29.27zm0 41.463l11.381 17.074-11.381 17.074-11.383-17.074zm-63.348 100.991c6.917-1.744 13.964-3.413 21.508-4.781l-21.22-31.594zm111.295-14.151L1035 668.943l.136 28.572-18.854-.249zm-660.34 420.554c17.996-36.037 33.178-72.46 46.355-109.484l67.413 44.868c-34.97 27.774-72.264 50.526-113.768 64.617zm642.893-335.531c-12.064.257-24.521.617-35.749 2.09l-6.264.822 5.176 36.404 5.926-.549 6.382-.564 7.837-13.064-9.424.771-1.711-12.023c6.353-.703 12.818-1.261 19.418-1.62l25.792-38.153-6.244.031c-35.369.173-67.446 4.464-97.201 11.936l-6.443 1.617 15.004 47.361c-22.248 6.063-42.873 14.283-62.326 24.422l-6.484-10.062c10.007-5.255 20.196-10.129 30.734-14.184l6.453-2.482-16.92-33.457-5.346 2.197c-29.992 12.327-57.417 28.353-83.215 47.127L779 834.713l30.283 38.77c-19.261 14.385-37.967 30.71-56.785 48.676l-8.586-9.092c9.248-8.733 18.515-17.2 27.775-25.191l4.789-4.133-24.512-27.721-4.666 3.934c-23.766 20.027-46.627 42.187-69.652 65.48l-6.053 5.275 36.041 35.895c-19.627 19.928-39.408 41.356-60.193 63.215l-9.139-8.662 15.857-16.631 4.268-4.566-9.135-8.533-4.266 4.566-20.012 20.99-4.496 4.539 27.387 25.959 4.301-4.496 68.615-72.064 4.412-4.428-35.529-35.387c20.304-20.457 40.44-39.891 61.051-57.586l8.035 9.088c-9.373 8.221-18.736 16.745-28.057 25.664l-4.486 4.293 25.793 27.316 4.547-4.398c21.802-21.086 43.159-39.847 65.184-55.799l5.25-3.803-30.105-38.541c21.998-15.54 45.136-28.915 70.021-39.631l5.494 10.865c-10.953 4.536-21.63 9.585-31.916 15.238l-5.875 3.229 20.051 31.104 5.096-2.771c21.955-11.94 45.269-21.298 70.961-27.719l6.451-1.611-14.881-46.979c25.176-5.853 52.104-9.35 81.473-9.92l.029 5.027M-10 1670l120-120M340 490c3.259 72.689.133 146.002-10 220l-63.003-16.796c1.771 9.448 1.717 18.248-.224 26.106-10.168-6.202-20.607-14.221-30.633-22.529-18.706 92.222-37.156 184.066-125.984 289.528l.005 225.474c138.679-126.685 254.478-405.975 240.775-713.963M428.258 260a10 20 0 0 1-10 20 10 20 0 0 1-10-20 10 20 0 0 1 10-20 10 20 0 0 1 10 20zm140.871 2.032a10 20 0 0 1-10 20 10 20 0 0 1-10-20 10 20 0 0 1 10-20 10 20 0 0 1 10 20z"/></symbol><symbol id="G" preserveAspectRatio="none" viewBox="0 0 1300 2000"><path d="M585 695l-112.856-59.18 1.721-27.602L580 670l305.039-160.324-.052 25.052zM439.549 873.41c-2.199 11.53-4.911 23.275-7.841 34.769 43.85 19.867 81.12 46.098 116.906 73.455l31.527-32.624-.117-256.779-20.258-10.249.006 262.529c-36.017-27.637-75.146-52.139-120.222-71.1zm310.717-85.641l-.604-180.377 20.091-10.554.412 176.779-19.899 14.152zm324.92-313.856c-6.31-3.433-13.043-6.744-20.117-9.89l-.189 234.525 9.371 1.009c3.681-3.877 7.134-7.871 10.693-11.942zM330 710c10.133-73.998 13.259-147.311 10-220l-18.949 7.817 1.597 13.631c6.125 64.647.077 137.84-10.633 193.869zM110.427 966h16.215l9.031-12h-25.041zm-.205-30h38.588l6.19-12h-45.599zm.082-60h72.578l4.926-12h-78.084zm.123 30h56.65l6.158-12h-63.013zm-.123-60h85.714l4.516-12h-90.23zm.581-30H195a6 6 0 0 0 6.085-6 6 6 0 0 0-6.085-6h-84.696zm-.871-33H175c4.057.057 4.057-6.057 0-6h-64.986zm0-30H155c4.057.057 4.057-6.057 0-6h-45.567zm145.617-40.064l-1.301 6.197c-17.76 84.661-40.189 174.694-120.99 274.336l-1.34 1.652v163.473l10.682-13.32c76.408-95.292 141.945-241.845 171.152-411.162l.934-5.404zm9.094 14.846L301 737.455c-27.925 157.173-87.591 294.068-157 386.414V999.309c79.262-98.449 103.144-188.695 120.725-271.527zm489.611-174.919l-25.055-53.688-59.849 30.324 25.747 55.172M712.5 530c6.904 0 12.5 5.596 12.5 12.5s-5.596 12.5-12.5 12.5-12.5-5.596-12.5-12.5 5.596-12.5 12.5-12.5zm57.568-51.639l25.159 53.913 59.387-31.313-24.425-52.34zm42.432-.861c6.904 0 12.5 5.596 12.5 12.5s-5.596 12.5-12.5 12.5S800 496.904 800 490s5.596-12.5 12.5-12.5zm-231.775 97.267l26.03 55.778 59.723-30.594-26.014-55.745zM622.5 572.5c6.904 0 12.5 5.596 12.5 12.5s-5.596 12.5-12.5 12.5S610 591.904 610 585s5.596-12.5 12.5-12.5zm-111.572-25.996l-25.942 45.228 58.425 32.917 25.905-45.162zm26.793 31.301c3.974 5.645 2.619 13.443-3.026 17.417s-13.443 2.619-17.417-3.026-2.619-13.443 3.026-17.417 13.443-2.619 17.417 3.026zM906.793 139.3l-13.317-2.036c-105.3-16.1-212.93-30.902-324.064-30.361-66.681.324-134.623 6.172-204.082 20.576l-12.119 2.405L370 150c180.66-37.466 351.908-15.7 520 10l150-180"/></symbol><symbol id="H" preserveAspectRatio="none" viewBox="0 0 1300 2000"><path stroke="#44f" stroke-linecap="round" stroke-linejoin="round" stroke-width="6" fill="none" d="M921.558 121.325l-25.06-3.831c-105.512-16.132-214.303-31.175-327.25-30.609-67.768.339-137.033 6.298-207.98 21.012l-22.184 4.6M425 415c5 25 5 75-30 85s-70-15-70-15m-215-6.552V160M0 1660l110-110V565.476m-.048 858.315c314.127-261.102 358.266-584.625 369.286-928.328m-123.511 622.637c243.051-83.732 335.925-451.871 708.246-418.671m-726.175 453.229c139.583-35.032 229.006-152.447 327.118-251.727 98.724-99.899 202.375-184.191 377.154-174.997M452.012 469.223C442.44 813.792 407.376 1129.211 110 1387.2m965-913.267v213.595m-20-223.447v234.332m-20-242.953v241.937M905 420.772V711.33m-20-293.637V717.28m3.351-299.038c165.336 24.801 232.033 75.754 301.702 142.321m-778.944 424.69c28.188 14.13 52.952 32.587 77.586 51.208m-63.621-101.327c39.019 20.444 70.871 43.709 100.957 67.668m-94.368-94.825c43.893 20.069 81.163 46.299 117.275 73.608M439.2 873.673c45.425 18.698 84.554 43.2 120.342 70.782M475.757 586.08L580 645l305.052-159.789M473.693 607.988L580 670l305.077-159.802M472.061 636.489L585 695l299.973-159.663M560 682.157v262.407m20-252.538v257.328m20-262.407v240.492m130-309.623v185.676m20-196.246v180.717m20-191.082v176.713M478.285 527.592L570 580l319.196-161.726M685 765a20 20 0 1 0-40 0 20 20 0 1 0 40 0h0m-40-20c-15-30 10-25 20-20 10-5 35-10 20 20 30-15 25 10 20 20 5 10 10.599 34.355-20 20 15 30-10 25-20 20-10 5-35 10-20-20-30 15-25-10-20-20-5-10-10-35 20-20h0m-23.778 159.551c.059-5.039 1.919-10.832 3.778-14.551-5-10-10-35 20-20-15-30 10-25 20-20 3.933-1.966 10.186-3.933 15.413-3.77m-25.481-188.945C657.889 659.011 661.329 660 665 660c10.345 0 18.856-7.855 19.894-17.926m23.577-13.042c-.612 4.025-2.041 8.109-3.47 10.968 5 10 10.599 34.355-20 20 15 30-10 25-20 20-9.483 4.741-32.455 9.483-22.013-15.623m-240.493 343.952l67.145 44.763m435.725-620.048l129.765 194.647m.233-.732l-47.642 71.463m-81.899-64.693l45.682 68.523m68.494-252.244L905.982 621.026m-.433 53.762l21.318 31.977m89.298-9.553l18.834-28.25m-596.075 331.712l12.606-23.725c12.105-20.216 39.571-3.424 28.547 17.131l-14.461 24.478m14.461-24.478c12.105-20.216 37.365-2.357 26.341 18.198l-12.107 20.494m-83.201-47.52l14.081-26.502c12.105-20.216 37.365-2.356 26.341 18.198M70 487.069V200H0m70 366.092v-11.905m0 64.245v-40.025M0 1600l70-70V631.363M0 160h140L0 2.5M0 130h80L0 50m315 845a7.5 7.5 0 1 1-15 0 7.5 7.5 0 1 1 15 0h0m0 0c30-40 80 5 90-10m-90 15c9.92 49.006 72.409 27.159 75 45m-72.033-48.796C350.854 878.304 400 925 405 885m-15 60c5-30-66.33-20.364-72.418-46.242C342.271 923.29 385 930 395 920m0 0c4.031-20.98-63.401-33.217-80-20m17.448-74.874a7.46 7.5 0 0 1-7.022 7.916 7.46 7.5 0 0 1-7.874-7.059 7.46 7.5 0 0 1 7.022-7.916 7.46 7.5 0 0 1 7.874 7.059h0m0 0c27.519-41.649 79.731.421 88.809-15.126m-88.525 20.118c12.637 48.359 73.452 22.978 77.039 40.641m-74.308-44.601c31.642-19.749 83.102 24.062 85.794-16.158m-11.486 60.759c3.26-30.237-67.029-16.541-74.545-42.029 25.912 23.081 68.727 27.339 78.089 16.784m0 0c2.811-21.176-64.85-29.54-80.583-15.396m14.369-81.813a7.124 7.5 0 0 1-6.53 8.077 7.124 7.5 0 0 1-7.673-6.874 7.124 7.5 0 0 1 6.53-8.077 7.124 7.5 0 0 1 7.673 6.874h0m0 0c25.358-42.277 76.13-1.433 84.456-17.187m-84.075 22.17c13.127 48.052 70.631 21.264 74.443 38.839m-71.923-42.862c29.776-20.479 79.868 22.124 81.555-18.148m-9.631 61.01c2.449-30.304-64.357-14.978-72.093-40.284 25.246 22.473 66.216 25.734 74.922 14.964m0 0c2.218-21.236-62.563-28.025-77.273-13.519m11.128-73.529a6.852 7.5 0 0 1-5.624 8.638 6.852 7.5 0 0 1-7.892-6.155 6.852 7.5 0 0 1 5.624-8.638 6.852 7.5 0 0 1 7.892 6.155h0m0 0c20.982-44.414 72.84-8.311 79.582-24.76m-78.826 29.691c16.35 46.688 69.351 14.799 74.384 31.965m-72.285-36.2c26.926-23.096 78.271 14.821 76.726-25.455m-4.442 61.655c-.032-30.414-62.847-9.104-72.245-33.617 25.956 20.107 65.471 19.651 72.969 8.134m0 0c.459-21.358-62.151-22.264-75.108-6.482m7.302-82.279a6.762 7.5 0 0 1-5.549 8.638 6.762 7.5 0 0 1-7.788-6.155 6.762 7.5 0 0 1 5.549-8.638 6.762 7.5 0 0 1 7.788 6.155h0m0 0c20.705-44.414 71.877-8.311 78.53-24.76m-77.783 29.691c16.134 46.688 68.434 14.799 73.4 31.965m-71.329-36.2c26.57-23.096 77.235 14.821 75.712-25.455m-4.383 61.655c-.031-30.414-62.016-9.104-71.29-33.617 25.613 20.107 64.605 19.651 72.004 8.134m0 0c.453-21.358-61.329-22.264-74.115-6.482m-.617-70.649a6.924 7.5 0 0 1-5.482 8.789 6.924 7.5 0 0 1-8.114-5.938 6.924 7.5 0 0 1 5.482-8.789 6.924 7.5 0 0 1 8.114 5.938h0m0 0c20.172-44.973 73.387-10.296 79.819-26.923m-78.941 31.832c17.59 46.227 70.395 12.902 75.874 29.925m-73.85-34.216c26.667-23.823 79.405 12.68 76.918-27.541m-3.068 61.757c-.732-30.403-63.693-7.386-73.751-31.635 26.682 19.392 66.587 17.859 73.896 6.14m0 0c-.028-21.364-63.293-20.561-76.019-4.43m-75.003 422.41a7.73 8.033 0 0 1-8.614 6.994 7.73 8.033 0 0 1-6.73-8.952 7.73 8.033 0 0 1 8.614-6.994 7.73 8.033 0 0 1 6.73 8.952h0m0 0c35.714-38.606 81.208 15.762 93.322 1.121m-93.95 4.194c3.99 53.393 70.658 38.328 71.067 57.632m-67.555-61.28c35.891-14.734 80.297 41.325 90.438-.546m-22.883 61.826c8.884-31.239-65.294-30.31-68.269-58.615 22.173 29.303 65.039 42.016 76.525 32.691m0 0c6.76-21.777-60.682-43.591-79.323-31.708m-29.437 64.735a7.673 8.013 0 0 1-8.611 6.894 7.673 8.013 0 0 1-6.601-8.994 7.673 8.013 0 0 1 8.611-6.894 7.673 8.013 0 0 1 6.601 8.994h0m0 0c35.786-38.169 80.465 16.492 92.617 2.003m-93.287 3.293c3.494 53.295 69.797 38.9 70.034 58.159m-66.516-61.765c35.752-14.356 79.338 41.981 89.769.313m-23.253 61.452c9.091-31.076-64.543-30.852-67.249-59.113 21.752 29.439 64.188 42.526 75.67 33.333m0 0c6.9-21.658-59.849-44.056-78.455-32.38m-36.445 62.887a7.898 8.152 0 0 1-9.769 5.591 7.898 8.152 0 0 1-5.417-10.083 7.898 8.152 0 0 1 9.769-5.591 7.898 8.152 0 0 1 5.417 10.082h0m0 0c41.975-32.813 79.539 29.179 94.014 16.499m-95.465-11.275c-4.174 54.177 65.425 50.061 62.873 69.478m-58.768-72.556c38.486-8.856 74.694 54.653 91.36 14.353m-32.592 58.203c13.765-29.85-61.243-41.14-59.898-70.002 17.877 33.026 59.188 52.832 72.213 45.377m0 0c10.167-20.716-54.549-53.693-75.187-44.852m-46.546 63.696a8.084 8.122 0 0 1-10.525 4.484 8.084 8.122 0 0 1-4.463-10.574 8.084 8.122 0 0 1 10.525-4.484 8.084 8.122 0 0 1 4.463 10.574h0m0 0c46.141-27.976 77.917 37.499 93.971 26.5m-95.991-21.481c-9.891 53.225 61.377 56.663 56.757 75.625m-52.258-78.231c40.094-4.617 70.332 62.213 91.492 24.087m-39.234 54.144c17.119-28.087-58.05-47.373-53.675-75.823 14.756 34.651 54.74 58.735 68.774 52.755m0 0c12.506-19.426-49.929-59.087-71.856-52.557m-49.471 52.579a8.414 8.715 0 0 1-11.224 4.094 8.414 8.715 0 0 1-3.952-11.625 8.414 8.715 0 0 1 11.224-4.093 8.414 8.715 0 0 1 3.952 11.625h0m0 0c49.745-26.853 78.519 45.407 95.909 34.709m-98.332-29.47c-13.721 56.334 60.095 64.816 54.068 84.812m-49.226-87.3c41.952-2.244 69.039 71.363 93.49 31.959m-44.264 55.342c19.603-28.926-57.24-54.643-50.853-84.816 13.087 38.103 53.066 66.588 68.032 61.13m0 0c14.25-19.961-48.045-66.641-71.247-61.125m-13.256-21.474c138.541-127.436 254.35-406.802 240.608-714.842m-222.43 865.704c8.198-9.592-2.314-28.257-18.501-43.393m0 40c7.738 5.039 13.609 4.707 18.501 3.393M110 1385c5.306-6.524 4.355-12.857 1.003-19.872M110 1320c17.689 18.562 31.778 36.964 48.471 14.665m-47.767-38.871c22.171 15.196 35.716 44.344 47.538 38.425m-47.928-347.382c88.672-105.988 107.121-197.833 126.139-289.791M15 200c0 24.267 20 45.733 20 70s-20 45.733-20 70m2.257 294.906C22.489 653.366 35 670.807 35 690c0 24.267-20 45.733-20 70m1.199-150.676c-.448 2.082-.786 4.178-.988 6.294M15 340c0 24.267 20 45.733 20 70s-20 45.733-20 70c0 18.667 11.834 35.676 17.296 53.577M15 760c0 24.267 20 45.733 20 70s-20 45.733-20 70 20 45.733 20 70-20 45.733-20 70 20 45.733 20 70-20 45.733-20 70 20 45.733 20 70-20 45.733-20 70 20 45.733 20 70-20 45.733-20 70 20 45.733 20 70c0 17.992-10.994 34.445-16.68 51.641M30 200c0 24.267 20 45.733 20 70s-20 45.733-20 70m3.147 297.832C38.78 655.219 50 671.824 50 690c0 24.267-20 45.733-20 70m0-420c0 24.267 20 45.733 20 70s-20 45.733-20 70c0 18.209 11.261 34.842 16.883 52.264M30 760c0 24.267 20 45.733 20 70s-20 45.733-20 70 20 45.733 20 70-20 45.733-20 70 20 45.733 20 70-20 45.733-20 70 20 45.733 20 70-20 45.733-20 70 20 45.733 20 70-20 45.733-20 70 20 45.733 20 70c0 8.743-2.596 17.123-5.918 25.401M45 200c0 24.267 20 45.733 20 70s-20 45.733-20 70m2.774 296.652C53.267 654.469 65 671.413 65 690c0 24.267-20 45.733-20 70m0-420c0 24.267 20 45.733 20 70s-20 45.733-20 70c0 11.029 4.131 21.479 8.638 31.876M45 760c0 24.267 20 45.733 20 70s-20 45.733-20 70 20 45.733 20 70-20 45.733-20 70 20 45.733 20 70-20 45.733-20 70 20 45.733 20 70-20 45.733-20 70 20 45.733 20 70-20 45.733-20 70 20 45.733 20 70c0 1.502-.077 2.993-.22 4.475M0 115h64.039M0 100h48.85M0 85h35.304M0 70h20.525M140 580c-29.951-.016-40.027-19.94-30-60-12.409 6.549-12.465-6.157-15-15 0 0-8.695 11.232-18.695 26.232S40 530 55 510s16.464-26.464 20-30c5-5 25-5 45 0s55 50 55 50c-1.704 40.187-7.501 76.003-15 110-16.58 5.561-33.036 6.416-49.377 2.902m-39.25-106.008c6.157 2.24 9.933 5.263 9.933 8.591 0 6.904-16.254 12.5-36.305 12.5s-36.305-5.596-36.305-12.5 16.254-12.5 36.305-12.5c3.53 0 6.943.173 10.17.497M75 572.5A35.858 12.5 0 0 1 39.142 585a35.858 12.5 0 0 1-35.858-12.5A35.858 12.5 0 0 1 39.142 560 35.858 12.5 0 0 1 75 572.5h0M70 600a32.742 12.5 0 0 1-32.742 12.5A32.742 12.5 0 0 1 4.516 600a32.742 12.5 0 0 1 32.742-12.5A32.742 12.5 0 0 1 70 600h0m5 25a35 12.5 0 0 1-35 12.5A35 12.5 0 0 1 5 625a35 12.5 0 0 1 35-12.5A35 12.5 0 0 1 75 625h0m100-95c9.012-6.7 14.397-5.617 20-5 6.602 53.925-5.186 88.42-15 125-13.357 3.344-19.993-.02-20-10m35-115c30-10 58.099-28.711 95-20-.465 7.087-2.195 12.971-4.912 17.916C278.989 534.014 267.914 540.382 255 545c21.582 3.661 34.214 15.941 45 30-10.033 13.449-26.229 22.431-49.384 22.463C271.315 604.685 284.062 617.311 295 635c-18.492 7.153-37.007 14.354-50 10 19.289 27.697 26.761 54.112 21.773 74.31-29.698-18.115-61.71-51.734-86.773-69.31m88.591-147.135c-19.968 23.703-42.549 42.82-71.627 50.534l.314 2.014c27.151 1.82 53.022 6.851 72.722 18.898-24.548 10.717-49.297 15.727-74.99 12.402l-.156 2.753C218.159 598.765 244.968 602.452 260 625c-27.967 3.853-49.066-2.197-70.957-7.729l-1.28 4.911c23.946 23.099 43.122 50.723 57.776 82.638m164.128-212.127l41.922-6.162M340.523 503.13c2.789-.3 10.017-1.362 19.685-2.832m-71.397 11.031l47.735-19.89 3.637 2.778C343.136 565.525 339.937 637.433 330 710l-62.98-16.795m54.034-195.468l1.594 13.711c6.125 64.647.077 137.84-10.709 193.962m331.864-573.234C701.96 244.697 675 327.057 675 430c0 75 85 70 85 5 0-50-60-45.311-60-5 0 30 45 30 45 10 0-10-5-15-10-20m-65.66-286.734C726.4 245.602 693.068 334.167 700 430m-4.81-294.927c48.26 98.566 16.053 183.258 20.658 266.387m5.503-263.865c45.155 96.517 4.146 179.666 15.029 261.376m11.356-258.233c41.294 93.23-4.038 170.597 9.712 252.602m16.506-249.798c37.352 87.708-1.183 161.463 6.958 238.512m19.498-235.006c33.11 81.81 1.072 151.58 4.616 223.483m22.071-219.178c28.605 75.469 2.72 140.801 2.651 207.295m23.587-203.943c24.951 69.449 4.407 130.388 1.698 191.728m24.67-187.792c21.365 63.523 5.329 120.003 1.027 176.354m-143.53 144.641C760.06 482.813 785 465.209 785 430c0-35.779-30.724-43.555-48.2-30.312m24.594 75.296C783.006 475.603 805 458.064 805 425c0-35.174-29.693-43.284-47.303-30.966m31.792 70.333C808.171 460.965 825 443.922 825 415c0-38.859-36.24-44.685-52.39-26.43m36.808 65.81C828.128 451.009 845 433.959 845 405c0-39.224-36.924-44.792-52.84-25.909m37.676 65.212C848.378 440.754 865 423.744 865 395c0-39-36.504-44.727-52.566-26.23m33.91 70.213C864.27 434.82 880 417.962 880 390c0-34.529-28.614-42.977-46.321-31.623m34.026 70.265C885.059 423.957 900 407.252 900 380c0-39.087-36.667-44.753-52.673-26.106m40.274 64.775C904.999 414.024 920 397.306 920 370c0-38.91-36.337-44.701-52.455-26.357M393.488 145.734C390.692 165.756 385 207.455 385 215c0 10 5 30 5 40v70c0 30 67.094 152.094 75 160 15 15 63.177 34.874 85 30 15.768-3.522 96.225-30.183 127.661-63.115M382.576 147.228C363.268 207.665 366.103 272.149 360 335c-1.733 17.844-25.582 26.283-30 0m60-5c-10 50-80 60-80 15 0-43.271 50-40 50-15m21.642 21.232c-15 25 12.013 83.236 3.358 103.768-9.923 23.54-55 30-60 0-2.599-15.596 15-20 15-20m42.947-20c-2.874 48.281-28.151 45.347-37.947 45-14.991-.531-15-15-5-25m65.624-61.475c4.031 25.81.439 70.852-.624 81.475-5 50-90 50-95 5s58.774-61.204 55-25c-3.544 33.995-49.455 27.568-25 0m140-5c5 10 20 20 40 10m-55-25l15-5c5 0 5 5 15 5s10-5 20-5 5 5 15 5 15-5 15-5M390 220c11.318-14.134 56.376-43.415 80-10-1.399-1.496 1.277 6.539 0 5-25.008-30.136-66.371-7.783-80 5h0m240 10c-5.438-6.79-22.697-30.539-45-35-25-5-40 0-59.073 15.401 1.399-1.496-1.412 6.416 0 5C560.27 180.947 621.088 207.036 630 230h0m-160-15c18.673 51.658 0 74.505 0 100 0 15-6.095 35.06-5 45 1.595 14.471 15 15 20 25m45-10c-10-10-55-5-20 0s35-7.929 35-15c0-5-5-15-15-15m-5-80s15-20 35-20 45 25 80 25c-30 0-50.011 9.323-70 10-20.501.695-35-15-45-15m-135-10c15-10 25-15 40-10s45 20 45 20m0 0c-20 5-40 15-55 15-14.142 0-30-20-30-20M246.471 0L370 150c180.66-37.466 351.908-15.7 520 10L1023.334 0m-116.54 139.3l-13.317-2.036c-105.3-16.1-212.93-30.902-324.064-30.361-66.681.324-134.623 6.172-204.082 20.576l-12.231 2.537m-69.053-84.328C216.752 54.57 232.09 147.182 175 190c93.311 27.993 143.088-35.437 161.516-80.608M175 190c59.989 9.229 94.425-79.494 134.753-112.881M310 130c3.622-15.522-.587-31.178-6.695-46.867M255 85c18.364-7.903 33.498-4.91 48.503-1.481M240 120c13.663-9.296 27.374-11.325 41.122-10.975M290 155c3.267-4.481-3.393-36.023-7.714-46.574M225 155c11.905-7.533 22.973-11.691 33.555-13.886M260 175c.69-8.732.615-23.442-1.616-34.617M210 170c7.27-1.286 13.646-.613 19.568 1.056M230 185c4.485-6.254 3.934-11.496 1.8-16.426"/></symbol><symbol id="I" preserveAspectRatio="none" viewBox="0 0 1300 2000"><path stroke="#44f" stroke-linecap="round" stroke-linejoin="round" stroke-width="3" fill="none" d="M524.942 513.716L570 540l126.329-61.127M61.132 535.04c-6.953 8.523-6.132 13.187-1.559 20.414m-2.136 7.295c-6.953 8.523-6.132 13.187-1.559 20.414m-1.52 7.5c-6.953 8.523-6.132 13.187-1.559 20.414m8.538 4.422c-6.953 8.523-6.132 13.187-1.559 20.414M35 540c-3.989 5.328-1.136 7.235 0 10m-.821 17.915c-3.989 5.328-1.136 7.235 0 10m-2.668 18.12c-3.989 5.328-1.136 7.235 0 10m-.205 14.631c-3.989 5.328-1.136 7.235 0 10M60 505c5 5-5 25-5 25m340-280c15-20 25-20 40-20s40 20 40 20m60 5c15-20 27.855-25.694 45-25 12.009.486 30 15 30 15m-179.851.272C433.131 248.928 435 254.173 435 260c0 11.046-6.716 20-15 20s-15-8.954-15-20c0-6.19 2.109-11.724 5.422-15.392m162.601 5.46c1.258 2.926 1.978 6.317 1.978 9.932 0 11.046-6.716 20-15 20s-15.871-6.052-15.871-17.097c0-6.372 2.235-12.048 5.717-15.711M610 510l78.911-37.135M615 500l69.819-32.856M480 460c10.058-6.049 25 0 35 5"/><use xlink:href="#C" height="75" width="75" transform="matrix(1 0 0 .972 467 692.036)"/><use xlink:href="#C" height="75" width="75" transform="matrix(1 0 0 .972 467 808.036)"/><use xlink:href="#C" height="75" width="75" transform="matrix(1 0 0 .972 789 607.036)"/></symbol><rect width="239" height="335" x="-119.5" y="-167.5" rx="12" fill="#fff" stroke="#000"/><use width="164.8" height="260.8" x="-82.4" y="-130.4" xlink:href="#D"/><use transform="rotate(180)" width="164.8" height="260.8" x="-82.4" y="-130.4" xlink:href="#D"/><use width="164.8" height="260.8" x="-82.4" y="-130.4" xlink:href="#E"/><use transform="rotate(180)" width="164.8" height="260.8" x="-82.4" y="-130.4" xlink:href="#E"/><use width="164.8" height="260.8" x="-82.4" y="-130.4" xlink:href="#F"/><use transform="rotate(180)" width="164.8" height="260.8" x="-82.4" y="-130.4" xlink:href="#F"/><use width="164.8" height="260.8" x="-82.4" y="-130.4" xlink:href="#G"/><use transform="rotate(180)" width="164.8" height="260.8" x="-82.4" y="-130.4" xlink:href="#G"/><use width="164.8" height="260.8" x="-82.4" y="-130.4" xlink:href="#H"/><use transform="rotate(180)" width="164.8" height="260.8" x="-82.4" y="-130.4" xlink:href="#H"/><use width="164.8" height="260.8" x="-82.4" y="-130.4" xlink:href="#I"/><use transform="rotate(180)" width="164.8" height="260.8" x="-82.4" y="-130.4" xlink:href="#I"/><use xlink:href="#B" height="32" width="32" x="-114.4" y="-156"/><use xlink:href="#C" height="26.769" width="26.769" x="-111.784" y="-119"/><use xlink:href="#C" height="55.68" width="55.68" x="30.915" y="-132.16"/><g transform="rotate(180)"><use xlink:href="#B" height="32" width="32" x="-114.4" y="-156"/><use xlink:href="#C" height="26.769" width="26.769" x="-111.784" y="-119"/><use xlink:href="#C" height="55.68" width="55.68" x="30.915" y="-132.16"/></g><use xlink:href="#A" stroke="#44f" fill="none"/></svg>