<svg xmlns="http://www.w3.org/2000/svg" xmlns:xlink="http://www.w3.org/1999/xlink" height="336" preserveAspectRatio="none" viewBox="-120 -168 240 336" width="240" xmlns:v="https://vecta.io/nano"><defs><path id="A" d="M-82.4-130.4H82.4v260.8H-82.4z"/></defs><symbol id="B" viewBox="-500 -500 1000 1000" preserveAspectRatio="xMinYMid"><path d="M-260 100c300 0 220 360 520 360M-175 0v-285a175 175 0 0 1 350 0v570a175 175 0 0 1-350 0z" stroke="red" stroke-width="80" stroke-linecap="square" stroke-miterlimit="1.5" fill="none"/></symbol><symbol id="C" viewBox="-600 -600 1200 1200" preserveAspectRatio="xMinYMid"><path d="M0-300c0-100 100-200 200-200s200 100 200 250C400 0 0 400 0 500 0 400-400 0-400-250c0-150 100-250 200-250S0-400 0-300z" fill="red"/></symbol><symbol id="D" preserveAspectRatio="none" viewBox="0 0 1300 2000"><path fill="#fc4" d="M798.125 0L996.15 316.934c30.485-16.067 60.625-26.799 98.85-11.934-29.752-93.653-66.268-185.695 11.684-305zm-303.18 58.916c-67.134 89.21-137.18 256.445-209.178 473.756l15.621-9.037-18.012 10.963c89.61 62.08 188.593 99.795 291.498 113.723 29.424 82.442 45.915 177.699 53.135 263.441 16.143 5.11 33.435 11.684 51.535 19.52 42.503 18.4 67.673 23.563 85.709 23.795 4.534-101.691 14.779-219.606 49.416-315.82l-2.072.078c63.317-13.023 126.565-34.417 188.578-64.102l-19.453-18.437c-230.691 107.477-475.364 97.049-674.77-36.377l116.441-67.357c26.775-78.128 53.874-148.546 80.727-209.178C499.403 207.077 495 168.127 495 160zM1265 515c-52.303 7.942-64.694 51.592-55 115 61.95-13.835 19.389-83.158 55-115zM245.451 568.699c-24.812 25.295-42.278 53.292-50.633 79.777-1.665 5.278-2.982 10.587-3.879 15.51-4.755-3.913-11.305-10.163-20.195-24.133-7.071 7.071-17.678 24.747-10.607 31.818-7.071-7.071-24.747 3.536-31.818 10.607 18.902 12.028 23.67 19.774 26.979 24.881-7.909.936-16.217 2.689-24.447 5.285-27.12 8.555-55.826 26.661-81.592 52.428C26.313 787.818 9.461 813.092 0 837.504v38.625c2.549-.531 5.14-.852 7.742-.945 11.409-.41 23.007 3.46 31.945 12.398 17.876 17.876 15.482 46.389-.885 62.756C28.707 960.434 13.991 965.202 0 963.184v67.809c7.375-12.244 13.046-24.569 16.836-36.584 2.129-6.75 3.689-13.551 4.885-20.703 5.225 2.775 12.545 8.394 23.27 25.246 7.071-7.071 17.678-24.747 10.607-31.818 7.071 7.071 24.747-3.536 31.818-10.607-15.693-9.986-21.644-17.02-24.803-21.869 6.161-.882 12.195-2.324 18.189-4.215 27.12-8.555 55.826-26.663 81.592-52.43s43.875-54.474 52.43-81.594c2.565-8.132 4.306-16.336 4.973-24.494 4.77 2.979 12.655 7.325 25.193 27.027 7.071-7.071 17.678-24.747 10.607-31.818 7.071 7.071 24.747-3.536 31.818-10.607-14.14-8.998-20.371-15.601-23.975-20.322 5.064-.845 10.223-2.134 15.352-3.752 14.918-4.706 30.315-12.303 45.439-22.475-155.461 181.185-124.462 482.696-166.279 612.256 0 0 17.157 27.767 22.342 13.207 10.084-28.318 15.252-61.986 20.088-99.738 7.322-57.164 12.255-123.785 22.188-192.234 19.164-132.068 56.757-268.633 159.93-356.361l-3.768-29.156 10.914-8.689-30.338-13.59c-5.902 7.841-12.634 15.635-20.137 23.139-23.012 23.012-48.755 38.775-70.236 45.551-3.507 1.106-6.837 1.963-9.865 1.955 9.739-9.077 12.905-20.867 60.166-59.391-6.482-6.482-26.516-12.375-40.658 1.768 14.142-14.142 8.249-34.176 1.768-40.658-39.746 48.761-51.035 50.583-59.947 61.477.248-3.144 1.206-7.037 2.512-11.176 6.776-21.481 22.538-47.224 45.551-70.236l1.957-1.932zm865.963 8.848c-10.264-.134-20.856 2.108-31.414 7.453 46.039-3.573 39.697 80.56 115 60-8.118-29.829-43.319-66.928-83.586-67.453zm-79.525 25.834c-25.484 49.987-30.128 144.165-42.439 250.289l-2.143-.035c-3.41-.91-6.888-1.658-10.432-2.236-70.246-11.471-139.224 47.998-154.066 132.83-14.009 80.071 25.217 154.118 88.91 171.568 24.059-46.957 40.628-97.763 52.615-149.191-11.965 51.385-28.472 102.117-52.437 148.936l-1.916 56.029 24.17-44.639c54.856-107.169 71.63-230.67 83.096-336.74 5.733-53.035 10.082-101.792 16.539-141.346 5.874-22.701 8.517-47.911 17.871-69.008zm-822.006 71.775c10.707.12 21.425 4.046 29.805 12.426 17.876 17.876 15.482 46.389-.885 62.756s-44.879 18.761-62.756.885-15.482-46.389.885-62.756c8.183-8.183 19.402-12.874 30.811-13.283a45.33 45.33 0 0 1 2.141-.027zm-58.311 62.797c-7.188 8.682-16.259 22.289-55.074 53.928 6.482 6.482 26.516 12.375 40.658-1.768-14.142 14.142-8.249 34.176-1.768 40.658 31.756-38.958 45.346-47.953 53.969-55.08-.54 3.562-1.438 7.114-2.623 10.869-6.776 21.481-22.54 47.224-45.553 70.236s-48.755 38.777-70.236 45.553c-3.456 1.09-6.739 1.939-9.943 2.146 8.365-8.81 13.882-21.419 58.234-57.572-6.482-6.482-26.516-12.375-40.658 1.768 14.142-14.142 8.249-34.176 1.768-40.658C42.73 854.18 30.603 858.286 22.139 867.5c.589-3.431 1.524-7.189 2.781-11.176 6.776-21.481 22.538-47.224 45.551-70.236s48.757-38.777 70.238-45.553c3.782-1.193 7.357-2.095 10.863-2.582zM1300 788.518l-198.978 184.24-5 30L1300 813.889zM165 930a15 15 0 1 0 0 30 15 15 0 1 0 0-30zM38.428 1047.379a15 15 0 1 0 0 30 15 15 0 1 0 0-30z"/></symbol><symbol id="E" preserveAspectRatio="none" viewBox="0 0 1300 2000"><path fill="red" d="M746.039 0l206.088 341.307c15.258-7.897 29.4-16.481 43.92-24.318L798.121 0zM875 35c-31.092 8.314-41.518 4.398-53.969 1.68l57.988 92.059C885.971 109.29 893.248 89.816 905 70c-2.137-16.474 2.286-21.782 5-30-17.314 2.037-27.148-.831-35-5zm165 245c-15.296 3.824-45.217 4.723-66.084.461l23.332 36.012c26.139-13.724 51.823-23.142 82.586-16.338-15.235-5.762-30.898-11.259-39.834-20.135zm130 20c0 14.476-11.343 28.059-19.58 38.242-28.503-21.355-68.6 20.925-47.736 47.355C1092.922 393.771 1079.403 405 1065 405c14.287 0 27.704 11.049 38.061 18.709-22.706 26.031 19.184 70.555 47.391 47.26C1157.923 481.08 1170 495.064 1170 510c0-16.166 14.145-31.216 21.488-41.594 28.973 29.698 76.233-20.126 48.353-46.713C1249.627 414.217 1261.951 405 1275 405c-12.819 0-24.937-8.894-34.832-16.559 27.385-26.864-19.695-76.438-48.846-47.145C1183.665 330.701 1170 315.889 1170 300zm-.045 36.957A3 3 0 0 1 1173 340v22.623c20.775 1.516 37.861 18.602 39.377 39.377H1240a3 3 0 1 1 0 6h-27.623c-1.516 20.775-18.602 37.861-39.377 39.377V475a3 3 0 1 1-6 0v-27.623c-20.775-1.516-37.86-18.602-39.377-39.377H1100a3 3 0 1 1 0-6h27.623c1.516-20.775 18.602-37.861 39.377-39.377V340a3 3 0 0 1 2.955-3.043zM477.85 421.502l-56.74 32.926c169.111 93.385 326.437 62.845 482.072 15.605-11.298-14.857-22.135-30.339-32.578-46.6l-.371-.809c-134.973 39.939-257.926 61.773-392.383-1.123zm-87.26 228.133l-12.514 8.07c9.905 58.467 14.521 126.905 10.342 186.232 31.251 8.712 56.596 31.015 73.1 61.361 15.58-4.131 31.753-7.557 49.326-9.16a233.55 233.55 0 0 1 19.076-.951c23.494-.217 47.93 3.001 73.793 9.545-6.755-67.02-19.692-143.351-38.711-207.422-59.554-8.73-118.09-24.43-174.412-47.676zm504.787 20.119l-70.145 17.49c-23.969 84.299-30.937 172.324-34.76 263.523 13.061-2.379 28.421-9.189 50.66-20.199l.008-.568c14.214-27.104 34.595-48.927 58.195-63.057zM208.701 705.02a13.75 15 45 0 0-10.557 4.66 13.75 15 45 0 0-.885 20.33 13.75 15 45 0 0 20.33-.885 13.75 15 45 0 0 .883-20.33 13.75 15 45 0 0-9.771-3.775zm1047.025 36.811L1300 764.65v-.068zM8.701 905.02A13.75 15 45 0 0 0 908.104v23.965a13.75 15 45 0 0 17.59-2.943 13.75 15 45 0 0 .883-20.33 13.75 15 45 0 0-9.771-3.775zM540 955a10 10 0 1 0 0 20 10 10 0 1 0 0-20zm110 35a10 10 0 1 0 0 20 10 10 0 1 0 0-20z"/></symbol><symbol id="F" preserveAspectRatio="none" viewBox="0 0 1300 2000"><path fill="#44f" d="M526.439 166.699a12.5 20.069 0 0 0-12.5 20.068 12.5 20.069 0 0 0 12.5 20.068 12.5 20.069 0 0 0 12.5-20.068 12.5 20.069 0 0 0-12.5-20.068zm152.381 2.475a12.5 20.069 0 0 0-12.5 20.068 12.5 20.069 0 0 0 12.5 20.068 12.5 20.069 0 0 0 12.5-20.068 12.5 20.069 0 0 0-12.5-20.068zM478.639 423.938l-9.701 2.424 12.748 51 36.535-19.016 14.379 33.785 35.807-20.461 22.602 34.314L624 478.781l26.432 31.555 29.783-30.643 30.436 27.652 23.955-31.078 29.285 26.377 25.17-38.994 37.713 23.324 20.209-35.367 38.18 19.322 6.592-15.512-6.646-9.924-4.967 11.686-37.123-18.787-19.791 34.631-37.248-23.037-24.121 37.369-28.582-25.744-23.926 31.041-29.564-26.861-28.803 29.631-25.689-30.668-32.057 26.434-21.643-32.857-34.193 19.539-14.209-33.385-34.877 18.154-8.463-33.852zm-57.342 30.381l-114.504 66.258c199.458 133.265 444.188 143.72 674.129 36.01-27.706-26.002-53.38-54.402-77.529-86.273l-16.281 4.832 56.918 44.07 6.723 19.914c12.792 37.899-28.306 41.217-37.9 12.793l-25.898-76.73-3.836 1.109 25.496 81.254c11.976 38.165-29.182 40.6-38.164 11.977L845 488.43l31.381-10.176-35.863 9.803 18.717 85.553c8.548 39.076-32.665 37.856-39.076 8.549l-18.166-83.037 33.525-9.777c-11.64 2.971-23.295 5.785-34.973 8.357l13.623 86.195c6.244 39.51-34.825 35.876-39.508 6.244l-13.27-83.957 21.436-4.766-22.482 4.174 6.445 85.217c3.017 39.886-37.624 32.932-39.887 3.018l-6.244-82.553-5.078.551 7.045 82.852c3.389 39.856-37.314 33.281-39.855 3.389l-7.088-83.342-2.146.076v84.09c0 40-40 30-40 0v-84.225l-4.223-.184-7.965 82.473c-3.846 39.815-42.701 26.015-39.816-3.846l7.949-82.289-5.461-.756-7.746 79.514c-3.879 39.812-42.721 25.98-39.812-3.879l8.104-83.176-2.691-.652-20.762 79.119c-10.153 38.69-46.304 18.865-38.689-10.152l15.689-59.787-22.754 55.875c-15.086 37.046-48.361 12.699-37.047-15.086l27.299-67.031-37.217 69.73c-18.834 35.289-49.414 7.632-35.289-18.834l37.82-70.863-53.898 64c-25.767 30.595-49.921-2.821-30.596-25.768l8.572-10.18 77.584-31.168.539-1.01.908.428.006-.002-.004.004.34.16-13.078-6.986zm572.537 178.678c-32.993 14.843-65.949 26.892-98.861 36.879l4.711 196.863c20.173-11.654 42.263-17.696 64.926-16.695.499-3.371.876-6.674 1.246-9.967 8.965-79.837 12.574-152.202 27.979-207.08zm-207.227 11.195a727.27 727.27 0 0 1-71.588 8.604c47.184 3.226 63.191 22.539 7.045 27.49 38.722 4.926 44.1 19.55-7.064 24.715 39.999 4.04 53.548 23.377-1.52 32.617 34.786 4.842 43.165 22.433-.627 27.383v7.219c32.002 6.45 40.403 19.467-.408 22.535l-.148 8.133c30.463 5.043 37.389 16.297-.387 21.33l-.082 4.496c25.35 5.123 30.484 14.819-.359 19.836l-.092 5.076c25.867 5.124 31.192 14.98-.363 20.004l-.088 4.908c26.38 5.123 31.876 15.132-.365 20.162l-.016.83c21.084 5.048 24.912 13.47-.334 18.363l-.027 1.553c21.493 5.06 25.431 13.601-.336 18.512l-.098 5.385c11.78 4.054 22.058 6.944 30.756 8.764 4.052-97.405 13.957-212.672 46.102-307.914zm-184.516 7.158c30.017 86.817 45.436 181.084 51.969 269.529 8.134 3.106 16.714 6.606 25.484 10.402l14.93 6.395-.828-16.973c-41.022-2.563-48.055-16.723-1.109-22.725l-.164-3.34c-42.022-2.431-49.289-16.895-1.117-22.877l-.043-.898c-44.051-2.149-51.821-17.252-1.133-23.182l-.143-2.908c-45.028-2.01-53.083-17.415-1.137-23.311l-.062-1.268c-47.391-1.836-56.193-19.839-1.285-26.314l-.076-1.549c-51.163-1.135-61.001-20.483-1.307-26.764l-.115-2.379c-49.981-1.361-59.473-20.289-1.301-26.639l-.076-1.561c-56.128-.119-67.562-22.899-1.43-29.289l-.021-.408c-63.898 1.848-77.878-24.127-1.453-29.775l-.039-.785c-56.398 2.383-77.672-12.672-39.227-20.727a626.67 626.67 0 0 1-40.316-2.656zm653.635 90.48l18.615 9.65L1300 764.648v-.066zm18.615 9.65l-2.242-1.156-2.881 2.416c13.961 7.24 1.865 26.482-27.957 28.852-.667.053-1.327.103-1.543.203-2.887 19.364-21.042 42.851-34.719 48.205-18.527 7.253-62.318 13.871-86.9-6.992-4.822 45.976-9.728 97.031-17.41 149.504L1300 788.188v-23.316l-25.658-13.391z"/></symbol><symbol id="G" preserveAspectRatio="none" viewBox="0 0 1300 2000"><path d="M676.066 0L1040 600l50-30L746.035 0zM504.141 244.025c-26.871 60.49-53.971 130.908-80.924 209.139l122.219-70.969C528.428 352.774 517.232 323.927 515 315c-2.284-9.136-6.654-39.14-10.859-70.975zM259.473 548.326l-24.027 13.426c100.211 74.155 212.68 118.88 329.557 135.559 19.019 64.071 31.958 140.402 38.457 207.357 7.823 1.986 15.914 4.304 24.604 7.109-6.479-76.912-20.46-161.5-44.396-237.529-114.767-13.351-225.324-55.079-324.193-125.922zm762.297 44.68c-70.665 34.824-143.219 59.193-215.764 72.4-27.715 90.503-36.598 196.847-41.055 289.666 3.352.074 6.834-.077 10.08-.373 4.958-.452 9.93-1.355 15.475-3.939 3.79-91.191 10.757-179.217 34.727-263.516 56.386-11.548 112.816-29.494 168.602-54.248-15.405 54.878-19.013 127.243-27.979 207.08-.37 3.293-.746 6.596-1.516 9.955 3.908.225 8.22.662 12.535 1.367 3.543.579 7.021 1.326 11.543 1.979 13.378-106.169 18.029-200.09 43.471-249.996z"/></symbol><symbol id="H" preserveAspectRatio="none" viewBox="0 0 1300 2000"><path stroke="#44f" stroke-linecap="round" stroke-linejoin="round" stroke-width="6" fill="none" d="M545.838 382.41L0 698.421m210.004 268.612L-.001 1161.482m911.897-5.941c99.387-194.166 70.757-455.581 119.992-552.159M388.457 843.949c63.517 17.706 102.744 91.752 88.735 171.822-14.842 84.832-83.82 144.303-154.066 132.831-3.543-.579-7.022-1.327-10.432-2.237m597.286 65.205l24.171-44.638c54.856-107.169 71.63-230.669 83.096-336.74 5.733-53.035 10.082-101.792 16.539-141.346 5.874-22.701 8.517-47.91 17.871-69.007m67.841 45.307c-9.948 28.196-15.078 61.66-19.881 99.154-7.322 57.164-12.255 123.785-22.187 192.234-19.164 132.068-56.757 268.632-159.93 356.361M378.077 657.705c9.905 58.467 14.52 126.904 10.3 186.221m-230.424 478.306c46.142-142.959 3.628-495.272 220.78-664.284l10.914-8.688m866.079 92.57l44.352 22.862M750.694 123.089c68.418 306.465 221.932 452.112 390.965 555.148M283.377 534.597c211.008 146.18 473.964 157.357 717.799 40.635m-741.705-26.906c98.869 70.843 209.426 112.569 324.302 126.002m222.085-8.41c72.693-13.72 145.247-38.089 215.912-72.914m-40.047-36.21c-230.743 107.5-475.473 97.046-674.903-36.465m794.201 452.428L1300 788.518M895.211 669.96l4.163 196.821m-74.41-179.373c56.655-11.711 113.085-29.657 168.473-53.741m-757.992-71.916c100.211 74.155 212.681 118.88 329.732 135.112m429.055-64.538c-15.802 55.549-19.411 127.914-28.376 207.751l-1.13 9.91M714.803 652.833l-4.699 290.744m-29.437-289.575l13.985 283.928m120.019-298.674c-34.637 96.214-44.882 214.13-49.259 315.816M574.854 648.259c29.437 82.456 45.933 177.739 53.643 263.691m162.265 37.637c3.533-90.019 10.501-178.044 34.74-262.506m-39.016-42.905c-32.023 95.257-41.929 210.524-46.152 307.883m-85.999-31.084c-6.807-88.543-22.226-182.809-51.944-269.704m-37.562 46.486c19.193 63.624 32.131 139.955 38.753 206.927M676.066 0L1040 600l50-30L746.035 0m206.224 341.308c48.665-25.414 87.155-57.926 142.742-36.309-29.747-93.639-66.266-185.665 11.64-304.944M996.589 316.582L798.134 0m190.376 303.785l-43.722 25.505m34.4-40.9l-43.237 25.222m33.506-40.379l-43.084 25.133m33.45-40.346l-43.36 25.293m33.967-40.648l-30.222 17.629m20.502-32.793l-22.525 13.139M1040 145c-45 15-83.59-37.436-115-15-35 25 5.621 69.69 25 60 20-10 15-40-5-40s-10 15-10 15m105-20c-35.233 31.759-8.631 91.182-43.635 107.452-39.004 18.13-57.865-39.242-39.881-51.327 18.559-12.472 42.197 6.666 32.338 24.067s-17.98 1.307-17.98 1.307m-43.479-19.964c26.765-8.233 51.765-24.324 77.637-36.535m-50 25c22.594-17.664 26.08-20.229 30-35m-30 35c17.823-3.506 40-2.73 50 5m-41.76 63.595C990.161 274.298 1020 270 1045 255c10.162 20.306 32.016 34.07 50 50m-121.084-24.539c20.867 4.262 50.788 3.363 66.084-.461 8.936 8.875 24.598 14.372 40 20M821.031 36.679C833.482 39.397 843.908 43.314 875 35c7.852 4.169 17.686 7.037 35 5-2.714 8.218-7.137 13.526-5 30-11.752 19.816-19.029 39.289-25.981 58.737m18.705 30.614c4.639-23.73 2.017-48.188 32.276-69.351 1.615-29.331 6.911-59.477 13.847-89.987M421.08 454.251c169.14 93.562 326.466 63.021 482.21 15.869m-33.057-47.494c-134.973 39.939-257.926 61.773-392.671-1.225m664.282 257L1160 660c5-5 27.755 2.147 39.384-13.489 16.846-22.651 34.829-5.695 17.537 13.284-14.287 15.681-36.921 27.397-36.921 27.397 10.522 34.893 5.95 67.291-10 97.808m60-140c40-50 60.47-13.562 25 20-39.863 37.719-63.642 28.302-25-20h0m5.524 35.004c52.181-37.11 61.871 3.545 18.555 26.091-48.68 25.337-68.964 9.759-18.555-26.091h0m.217 35.44c54.243-29.751 58.195 11.838 14.231 28.35-49.408 18.557-66.632.391-14.231-28.35h0m-.449 37.091c55.074-12.596 48.823 25.653 5.968 29.058-48.162 3.826-59.172-16.89-5.968-29.058h0m4.862 29.316c-3.322 19.308-21.478 42.795-35.155 48.149-18.527 7.253-62.318 13.872-86.952-6.551M586.596 977.682c6.931 1.796 14.16 3.937 21.73 6.447m-128.498-5.374c5.087-1.644 10.202-3.083 15.394-4.291m345.912-43.896c-31.007 15.351-48.642 22.538-66.102 24.131-18.435 1.682-44.48-1.337-95.486-23.418-56.213-24.335-104.646-36.509-149.625-36.094a233.55 233.55 0 0 0-19.076.951c-17.573 1.603-33.745 5.029-48.869 9.569m34.631 53.096c-6.123 1.254-12.102 2.803-17.995 4.601m136.681 7.25c-11.602-3.917-22.529-7.037-32.902-9.421m64.852 21.516l-7.231-2.949m105.958 33.949c-21.425-2.644-46.391-9.442-77.457-22.036m151.944 13.634c-13.177 4.665-26.135 7.842-39.975 9.105-2.448.223-4.934.389-7.462.492m-248.561-74.619a190.05 190.05 0 0 0-9.526.627c-13.547 1.236-26.213 3.835-38.379 7.401m173.228 19.219c-36.139-14.773-66.928-23.19-94.677-26.167m184.856 56.333c-16.314-2.725-35.18-8.014-57.935-16.804m140.076 7.78c-14.687 5.731-28.384 9.468-42.982 10.799m-259.075-73.984a202.75 202.75 0 0 0-6.476.486c-14.277 1.302-27.589 3.999-40.267 7.653m352.209 37.407c-17.401 7.501-32.154 12.078-47.754 13.501-24.824 2.264-56.475-2.535-110.129-25.762-40.946-17.726-76.094-28.152-107.979-31.971m362.763 206.622a25.16 25.16 0 0 0-4.154-1.495c-48.715-13.58-83.015-73.743-70.822-143.432 12.918-73.833 71.299-121.304 125.412-112.467a82.88 82.88 0 0 1 8.016 1.719 25.09 25.09 0 0 0 5.543.922M955 1040c-19.33 0-35-17.909-35-40s15.67-40 35-40c6.609 0 12.791 2.094 18.064 5.733m-10.56 49.114c-2.207 1.46-4.771 2.296-7.505 2.296-8.284 0-15-7.675-15-17.143s6.716-17.143 15-17.143c5.255 0 9.879 3.088 12.558 7.764m-26.719-27.254L920 915l-32.702-5L890 950l-35 15 15 40-23.182 30L880 1055l-10 40h40l5 35m5-215l20-35 35 20-12.62 60.658M975 900l10.255-10.255M910 1095l29.339-59.522M880 1055l46.217-32.354M870 1005l50.11-2.788M890 950l36.293 26.487M905 935l27.706 34.189M950 910l2.871 49.49M880 980l41.198 10.371M875 1030l46.856-16.687M900 1070l32.523-39.453M915 1130l11.121-4.448M935 1090l11.825-50.925M217.59 729.125a13.75 15 45 0 1-20.329.884 13.75 15 45 0 1 .884-20.329 13.75 15 45 0 1 20.329-.884 13.75 15 45 0 1-.884 20.329h0m2.217 16.294c4.252 3.005 7.236 8.202 6.69 19.499m7.175-33.905c3.393 3.897 8.956 6.415 20.555 5.094m-73.3-29.196c-3.005-4.252-8.202-7.236-19.499-6.69m33.905-7.175c-3.897-3.393-6.415-8.956-5.094-20.555m9.969 67.535c-6.355 5.552-11.803 13.412-14.731 27.695m1.768-40.659c-5.552 6.355-13.412 11.803-27.695 14.731m68.943-30.052c5.552-6.355 13.412-11.803 27.695-14.731m-40.659 1.768c6.355-5.552 11.803-13.412 14.731-27.695M213.17 752.99c.455 28.009 7.071 7.071 31.82 45.962 7.071-7.071 17.678-24.749 10.607-31.82 7.071 7.071 24.749-3.536 31.82-10.607-38.891-24.749-17.953-31.365-45.962-31.82m-67.175-10.607c-28.009-.455-7.071-7.071-45.962-31.82 7.071-7.071 24.749-17.678 31.82-10.607-7.071-7.071 3.536-24.749 10.607-31.82 24.749 38.891 31.365 17.953 31.82 45.962m4.125 60.693c-15.835 41.093-14.142 14.142-71.3 84.264-6.482-6.482-12.374-26.517 1.768-40.659-14.142 14.142-34.177 8.25-40.659 1.768 70.121-57.158 43.171-55.465 84.264-71.3m54.212-2.357c41.093-15.835 14.142-14.142 84.264-71.3-6.482-6.482-26.517-12.374-40.659 1.768 14.142-14.142 8.25-34.177 1.768-40.659-57.158 70.121-55.465 43.171-71.3 84.264M-.01 908.09a13.75 15 45 0 1 18.483.706 13.75 15 45 0 1-.884 20.329 13.75 15 45 0 1-17.597 2.958m19.813 13.335c4.252 3.005 7.236 8.202 6.69 19.499m7.175-33.905c3.393 3.897 8.956 6.415 20.555 5.094m-54.02 3.919l-.215.189m28.5-28.474c5.552-6.355 13.412-11.803 27.695-14.731m-40.659 1.768c6.355-5.552 11.803-13.412 14.731-27.695M13.17 952.99c.455 28.009 7.071 7.071 31.82 45.962 7.071-7.071 17.678-24.749 10.607-31.82 7.071 7.071 24.749-3.535 31.82-10.607-38.891-24.749-17.953-31.365-45.962-31.82M0 870.626c1.687 2.515 2.422 6.493 2.564 15.189m4.125 60.693c-2.535 6.579-4.621 11.414-6.571 15.182m34.855-43.466c41.093-15.835 14.142-14.142 84.264-71.3-6.482-6.482-26.517-12.374-40.659 1.768 14.142-14.142 8.25-34.177 1.768-40.659-57.158 70.121-55.465 43.171-71.3 84.264m13.037-24.709c.644-3.52 1.579-7.277 2.837-11.263 6.776-21.481 22.54-47.225 45.552-70.237s48.756-38.776 70.237-45.552c3.782-1.193 7.357-2.096 10.719-2.735m38.029 38.112c-.639 3.341-1.537 6.893-2.722 10.649-6.776 21.481-22.54 47.225-45.552 70.237s-48.756 38.776-70.237 45.552c-3.456 1.09-6.739 1.938-9.845 2.564m1.711 29.762c5.963-.902 11.998-2.344 17.992-4.235 27.12-8.555 55.826-26.663 81.592-52.43s43.875-54.472 52.43-81.592c2.565-8.132 4.306-16.338 4.989-24.34m-64.333-64.648c-8.093.665-16.4 2.417-24.631 5.013-27.12 8.555-55.826 26.663-81.592 52.43C26.289 787.843 9.406 813.148-.05 837.583m263.437-101.321c5.118-.903 10.276-2.193 15.406-3.811 14.981-4.726 30.445-12.366 45.63-22.602m-78.973-141.15c-24.812 25.295-42.277 53.292-50.632 79.777-1.665 5.278-2.982 10.586-3.889 15.85M220 670c.646-3.635 1.604-7.526 2.909-11.665 6.776-21.481 22.54-47.225 45.552-70.237l1.956-1.932m88.892 49.505c-5.902 7.841-12.634 15.635-20.137 23.138-23.012 23.012-48.756 38.776-70.237 45.552-3.507 1.106-6.835 1.963-9.981 2.591M.097 1030.839c7.33-12.193 12.963-24.466 16.738-36.43 2.129-6.75 3.69-13.551 4.55-20.243m31.504 92.288l27.17 20.9m-77.925-59.942l29.004 22.311m7.412 27.24l28.803 22.156m-67.354-51.811l24.267 18.667M0 1068.846l54.647 42.036m-54.648-20.498l41.942 32.263M0 1111.923l29.235 22.488M0 1133.461L15 1145m1.485-149.627l88.986 68.451m-95.499-51.922l82.792 63.686M74.433 932.256L169 1005m-85.754-44.426l73.048 56.191m-90.018-47.706l77.312 59.471m-87.499-45.768l74.794 57.534M47.132 997.41l71.043 54.649M21.042 977.34l19.76 15.2m137.231-131.36l49.281 37.908m-90.954-69.965l17.624 13.557M75.32 782.169l56.359 43.353M0 724.231l50.741 39.032m115.901 110.693l55.734 42.872M62.86 794.123l79.707 61.313M0 745.769l38.786 29.835M154.183 885.91l63.579 48.907m-105.953-81.502l18.103 13.925m-43.356-33.351l8.381 6.447m-42.963-33.049l17.659 13.584M0 767.307l28.07 21.592m112.828 108.329l72.572 55.824M98.453 864.579l17.573 13.518M42.008 821.16l16.369 12.591M0 788.846l18.156 13.966m161.273 145.595l27.689 21.299m-80.459-61.892l31.413 24.164m-72.104-55.465l15.352 11.809m-67.79-52.146l12.78 9.831M0 810.385l9.174 7.057m156.31 141.777l28.927 22.252m-83.15-63.962l37.342 28.725m-74.504-57.311l10.875 8.366M26.256 852.12l7.176 5.52m60.157 67.813l88.116 67.782M63.014 901.934l2.999 2.307m151.891-120.084l40.259 30.969M60.736 663.258l65.885 50.681m86.666 88.205l37.855 29.119m-67.056-51.581l3.896 2.997m-52.574-40.442l7.902 6.079M44.76 672.508l63.772 49.055m97.653 96.656l38.403 29.541m-73.575-56.596l10.764 8.28m-63.621-48.939l13.37 10.285M28.783 681.756l63.479 48.83m105.444 102.649l40.697 31.306m-79.398-61.075l14.515 11.165m-71.352-54.886l16.814 12.934M12.808 691.006l64.278 49.445m111.441 107.263l44.065 33.897M147.7 816.308l16.668 12.821m-40.716-31.32l6.194 4.764m-41.819-32.168l17.915 13.781M0 702.693l63.507 48.852m212.901 13.001l5.76 4.43M108.664 635.51l44.537 34.259m105.265 102.511l15.289 11.761M92.688 644.76l41.928 32.252M252.473 789.21l13.279 10.214M76.712 654.009l70.638 54.337m133.122-26.829l14.686 11.297m-65.748-50.575l11.405 8.773m-68.247-52.498l32.545 25.035m99.447 98.036l6.377 4.906m-41.66-32.046l8.603 6.618m-55.24-42.492l4.878 3.752m-70.926-54.559l41.47 31.9m89.392 90.301l13.43 10.33M140.615 617.012l51.856 39.889m74.339 78.722l24.469 18.822M124.64 626.262l36.201 27.847m125.784-32.474l50.618 38.937m-79.314-61.011l17.906 13.774m-55.339-42.568l13.469 10.361m71.844 76.803l18.752 14.425m-77.409-59.545l17.684 13.603m-60.317-46.397l18.951 14.578m69.324 74.865l17.513 13.472m-72.787-55.99l15.668 12.052m-64.646-49.728l25.185 19.373m56.07-21.485l79.34 61.031m-112.668-86.667l8.92 6.862m388.145-53.824v84.336c0 30 40 40 40 0v-84.25m-34.659.193c19.602 54.513 14.659 94.057 14.659 94.057m16.958-94.137c-16.958 35.909-16.958 94.137-16.958 94.137m22.131-94.356l7.103 83.532c2.542 29.892 43.245 36.467 39.856-3.389l-7.062-83.055m-34.389 2.684c23.937 52.435 22.371 92.03 22.371 92.03m8.608-94.381c-13.466 37.243-8.608 94.381-8.608 94.381m17.101-95.222l6.257 82.713c2.263 29.915 42.903 36.869 39.886-3.017l-6.456-85.341m-33.997 5.145c23.185 52.377 21.264 91.676 21.264 91.676m10.318-96.448c-14.814 37.011-10.318 96.448-10.318 96.448m13.79-96.106l13.269 83.958c4.683 29.632 45.754 33.265 39.51-6.244l-13.657-86.41m-34.183 7.916c28.341 51.203 29.647 91.494 29.647 91.494m3.174-99.188c-12.848 37.976-3.174 99.188-3.174 99.188m6.017-97.774l18.165 83.036c6.411 29.307 47.624 30.528 39.076-8.548l-18.751-85.716m-33.605 10.159c31.292 49.455 34.956 89.6 34.956 89.6m-2.552-99.533c-10.768 38.648 2.552 99.533 2.552 99.533M845 488.43l25.449 81.101c8.982 28.624 50.141 26.189 38.165-11.976l-25.563-81.465m-33.28 10.843c35.549 46.489 42.754 86.151 42.754 86.151M880.738 476.7c-6.091 39.409 11.787 96.384 11.787 96.384m.596-99.845C927.347 517.472 935 555 935 555m-48.124-80.039l25.976 76.96c9.594 28.424 50.692 25.107 37.899-12.792l-6.722-19.914m-22.646-25.875C924.855 524.945 935 555 935 555m-345.516-44.218l-7.952 82.325c-2.884 29.861 35.969 43.661 39.815 3.846l7.986-82.673m-33.99-2.684c13.688 55.26 5.135 93.387 5.135 93.387m25.268-90.943c-19.792 34.245-25.268 90.943-25.268 90.943m-55.911-102.481l-8.105 83.195c-2.909 29.859 35.933 43.69 39.812 3.879l7.754-79.592m-33.778-6.15c13.77 55.467 5.149 93.755 5.149 93.755m23.903-88.351c-18.649 34.418-23.903 88.351-23.903 88.351m-51.949-106.882l-21.027 80.129c-7.615 29.018 28.537 48.843 38.69 10.153l20.774-79.162m-32.813-9.202c4.677 56.708-9.844 92.96-9.844 92.96m38.697-84.792c-24.534 30.82-38.697 84.792-38.697 84.792m-30.637-108.104l-30.28 74.356c-11.315 27.785 21.96 52.132 37.046 15.086l30.692-75.367m-31.291-11.421c-3.129 55.399-21.695 88.507-21.695 88.507m48.805-78.506c-28.039 27.512-48.805 78.506-48.805 78.506m-19.937-107.926l-40.022 74.988c-14.125 26.466 16.455 54.122 35.289 18.834l40.962-76.749m-31.817-14.719c-8.252 57.939-31.497 90.873-31.497 90.873m61.81-76.877c-32.931 22.767-61.81 76.877-61.81 76.877m-51.037-61.05l-8.573 10.179c-19.325 22.946 4.829 56.362 30.595 25.767l57.014-67.699m-42.491 10.893c-17.716 34.414-36.262 51.571-36.262 51.571m77.988-62.948c-37.379 14.729-77.988 62.948-77.988 62.948m-69.459 8.726C357.765 315.36 427.811 148.126 494.89 58.84M322.975 510.917C381.614 336.465 438.967 195.8 494.449 104.282M384.897 475.866c38.258-111.114 75.947-207.313 112.906-284.292m-75.031 261.609c27.397-78.251 54.496-148.669 81.237-209.663M294.41 507.172L320.1 513.1m-20.582-20.903l40.531 9.353m-35.422-24.328L360 490m-50.266-27.754l70.215 16.203m-65.099-31.177L399.9 466.9m-79.635-34.531l99.584 22.981m-94.166-37.884l101.516 23.427m-96.1-38.331l101.475 23.417m-96.058-38.321l101.431 23.407M355 375l88.578 20.441M375 365l73.457 16.952M405 355l49.424 11.406M495 0v160c0 15 15 135 20 155s55 140 110 140 105-55 105-55m88.688-44.6c-18.702 34.5-48.638 66.046-74.206 97.595m14.55-53.807c-15.633 19.882-32.921 39.141-48.284 58.456m78.832-79.436c-18.436 26.76-41.858 52.042-62.189 77.379m-22.215-27.417l-26.523 32.124m10.984-27.103c43.909-10.771 110.281-61.055 137.788-85.222m5.279 9.225c-18.102 32.621-46.063 62.632-70.577 92.554m77.602-79.266c-16.896 26.262-39.219 50.994-59.58 75.597m66.201-63.268c-14.489 20.299-31.612 39.789-47.778 59.15m54.35-47.783c-11.227 14.64-23.503 28.915-35.42 43.093m41.804-32.151c-7.281 9.034-14.832 17.953-22.313 26.82M729.83 416.671l-35.376 42.606m-36.653-10.349l-9.626 11.976m33.944-23.174l-18.833 23.032m-53.144-8.579l-4.726 5.88m17.553-3.193l-3.623 4.546m19.539-5.682l-5.259 6.595m-51.908-28.06l-15.904 19.087m24.388-11.342l-11.618 14.091m21.033-7.381l-7.715 9.475m-32.475-51.225c-9.958 12.364-20.427 24.509-30.531 36.603m37.588-26.895l-25.519 30.415m32.895-21.297l-20.74 24.741m-32.697-51.127c-8.274 10.612-17.048 21.041-25.781 31.391m51.28-45.392c-12.251 17.089-26.347 33.609-40.139 49.966m46.869-38.844c-11.216 14.598-23.464 28.835-35.348 42.976m434.533-96.444l1.022.005m-133.761-11.221c20.894 12.031 50.768 29.651 82.544 42.241m-93.536-66.847c19.392 11.125 47.337 27.799 77.549 40.593m-87.181-64.415c17.874 10.23 43.359 25.484 71.283 38.005m-80.075-61.346c16.217 9.276 38.761 22.744 63.728 34.549m-71.778-57.465c14.451 8.277 33.813 19.779 55.389 30.465m-62.738-52.978c12.519 7.188 28.534 16.627 46.387 25.831m-53.057-47.952l36.188 20.378m-42.706-42.409l26.15 14.859m44.061 171.802c22.313 12.875 53.543 30.934 86.188 42.926m-72.234-16.608c23.509 13.529 55.244 31.31 87.845 42.304m-71.42-14.595c24.235 13.772 55.351 30.38 86.795 39.998m-68.754-11.466c24.444 13.544 54.298 28.516 84.03 36.621m-62.558-6.42c23.594 12.455 50.834 24.925 77.645 31.298m-51.847.64c21.159 10.225 44.228 19.437 66.764 23.968m-37.614 8.531c17.168 7.153 35.021 12.996 52.416 15.816m-22.305 14.482c12.582 4.83 25.423 8.822 38.088 11.325m202.426-143.577C1236.706 426.652 1255 405 1275 405c-20 0-38.294-21.652-48.232-25.404C1215.863 375.48 1200 380 1185 390c10-15 14.52-30.863 10.404-41.768C1191.652 338.294 1170 320 1170 300c0 20-21.652 38.294-25.404 48.232C1140.48 359.137 1145 375 1155 390c-15-10-30.863-14.52-41.768-10.404C1103.294 383.348 1085 405 1065 405c20 0 38.294 21.652 48.232 25.404C1124.137 434.52 1140 430 1155 420c-10 15-14.52 30.863-10.404 41.768C1148.348 471.706 1170 490 1170 510c0-20 21.652-38.294 25.404-48.232C1199.52 450.863 1195 435 1185 420c15 10 30.863 14.52 41.768 10.404h0m-124.473-45.294c-20.476-25.943 19.622-68.223 47.576-46.852m90.07 49.894c27.614-26.575-19.467-76.149-48.46-46.66m-88.184 82.198c-22.94 26.051 18.949 70.574 47.362 47.431m89.149-49.4c27.915 26.56-19.345 76.384-48.38 46.733M1155 390l-35-35m65 35l35-35m-65 65l-35 35m65-35l35 35m-59.622 31.421c3.809 80.773 35.138 104.711 35.055 161.946m-19.827-157.71c4.324 71.5 30.452 97.509 34.343 145.385M1195 645c-10.187-37.433-63.024-86.315-115-60 46.039-3.573 39.697 80.56 115 60h0m.433 3.14c-17.505-27.477-38.918-38.031-60.433-48.14m75 30c-9.694-63.408 2.697-107.058 55-115-35.611 31.842 6.95 101.165-55 115h0m0 0c4.92-31.947 12.783-59.341 25-80M622.943.046c18.254 56.906 55.479 84.504 107.509 89.228M640.659 0c16.19 35.089 41.58 55.964 74.706 64.889M663.881.359c9.369 15.133 20.915 26.901 34.463 35.577m-203.039 66.146C564.838 63.14 569.959 31.777 578.602 0m-83.554 78.346c46.126-29.016 57.405-53.931 64.472-78.351m-64.662 48.327C518.368 31.111 530.154 15.28 537.251 0M605 330s-5-20-15-20-20.05-3.939-20.05-18.939c0-10 23.76-81.567 15.05-141.061-27.24-19.336-56.037-29.644-90-10 1.711-.371 3.469.159 5.129-.376C530 130 558.259 130.437 585 150m35 0c35.938-42.84 75.413-22.419 115 0-37.611-16.488-75-35-109.474.184-1.149 1.173-4.275-1.361-5.526-.184h0m10 120c30.367-1.01 25 35 10 35-6.55 0-13.363-8.168-18.664-8.617C605 295 605 305 625 300m-50 50v10l5-5-5-5m95-5v10l-5-5 5-5m-90 10c11.947 6.27 14.485-4.753 20-5 5 0 10.657 4.697 15.657 4.697s12.828-6.161 17.828-6.161C651.3 359.487 652.819 350.434 665 350m-70 25c13.061 15.592 28.645 10.896 45 0-13.509 8.031-29.041 5.167-45 0h0m-95-190c3.605-9.012 14.375-17.166 25.371-17.095C544.877 168.03 560 190 575 190m-77.197 1.574c3.295 9.632 14.681 13.09 27.197 13.426 21.488 1.047 35-10 50-15m55 0c21.97-.786 30.609-17.601 45-20 30-5 50 20 65 20m-90-5c-5 15 16.983 24.908 30 25 19.153.135 45-20 60-20M283.377 534.597c211.008 146.18 473.964 157.357 717.799 40.635M180 945a15 15 0 1 1-30 0 15 15 0 1 1 30 0h0m0 0a15 15 0 1 1-30 0 15 15 0 1 1 30 0h0M53.428 1062.38a15 15 0 1 1-30 0 15 15 0 1 1 30 0h0m1042.593-59.621L1300 813.889M540 1005c-36.79 22.232-13.096-13.806-10-30-16.194 3.096-52.232 26.79-30-10-1.381-2.286-2.538-4.339-3.488-6.177-14.342-27.748 18.3-6.727 33.488-3.823-3.096-16.194-26.79-52.232 10-30 36.79-22.232 13.096 13.806 10 30 15.566-2.976 49.463-24.981 32.331 5.983-.692 1.251-1.468 2.589-2.331 4.017 22.232 36.79-13.806 13.096-30 10 3.096 16.194 26.79 52.232-10 30h0m90 29.641c-42.977.859-4.439-18.504 6.34-30.981-15.573-5.416-58.63-2.916-20.981-23.66-.859-42.977 18.504-4.439 30.981 6.34 5.416-15.573 2.916-58.63 23.66-20.981 42.977-.859 4.439 18.504-6.34 30.981 15.573 5.416 58.63 2.916 20.981 23.66.859 42.977-18.504 4.439-30.981-6.34-5.416 15.573-2.916 58.629-23.66 20.981h0M1170 387.5c9.31 0 17.5 8.19 17.5 17.5s-8.19 17.5-17.5 17.5-17.5-8.19-17.5-17.5 8.19-17.5 17.5-17.5h0"/></symbol><symbol id="I" preserveAspectRatio="none" viewBox="0 0 1300 2000"><path stroke="#44f" stroke-linecap="round" stroke-linejoin="round" stroke-width="3" fill="none" d="M1197.865 650c10.057 2.915 25.508-8.838 25.508-8.838M1217.159 665C1230 670 1230 685 1230 685m-11.178 8.408c10.346 9.102 5.2 23.191 5.2 23.191M1220 730c9.376 10.098 2.837 23.597 2.837 23.597m-7.435 5.011c9.283 10.184 2.619 23.623 2.619 23.623M1240 645c5.043 2.357 8.78 5.459 10 10m-7.062 30.789c4.258 3.584 7.063 7.55 7.063 12.252m-7.114 23.876c3.69 4.167 5.886 8.5 5.2 13.151m-6.908 24.304c1.898 5.233 2.345 10.069 0 14.142M595 405c12.683-6.061 25.889-7.25 40 0M495 165c20-20 45-20 60-5m-35 70c20 5 40-15 40-15m90-50c30-15 60 0 75 15h0m-55 50c35 0 55-20 55-20m-183.473-37.665c1.533 3.506 2.413 7.594 2.413 11.958 0 13.026-7.835 23.586-17.5 23.586s-17.5-10.56-17.5-23.586c0-4.902 1.109-9.454 3.008-13.226m180.913.075c3.019 4.238 4.875 9.993 4.875 16.332 0 13.026-7.835 23.586-17.5 23.586s-17.5-10.56-17.5-23.586c0-5.637 1.467-10.813 3.916-14.87"/><use xlink:href="#C" height="75" width="75" transform="matrix(.866025 .486 -.5 .841777 953.45706 1138.872262)"/><use xlink:href="#C" height="75" width="75" transform="matrix(.965926 .251572 -.258819 .93888 986.837049 1022.953275)"/><use xlink:href="#C" height="75" width="75" transform="matrix(.99863 .050871 -.052336 .970668 1005.987138 904.203077)"/><use xlink:href="#C" height="75" width="75" transform="matrix(.996195 .084715 -.087156 .968301 1020.365559 777.038385)"/><use xlink:href="#C" height="75" width="75" transform="matrix(.984808 .168786 -.173648 .957233 1037.987096 657.337291)"/></symbol><rect width="239" height="335" x="-119.5" y="-167.5" rx="12" fill="#fff" stroke="#000"/><use width="164.8" height="260.8" x="-82.4" y="-130.4" xlink:href="#D"/><use transform="rotate(180)" width="164.8" height="260.8" x="-82.4" y="-130.4" xlink:href="#D"/><use width="164.8" height="260.8" x="-82.4" y="-130.4" xlink:href="#E"/><use transform="rotate(180)" width="164.8" height="260.8" x="-82.4" y="-130.4" xlink:href="#E"/><use width="164.8" height="260.8" x="-82.4" y="-130.4" xlink:href="#F"/><use transform="rotate(180)" width="164.8" height="260.8" x="-82.4" y="-130.4" xlink:href="#F"/><use width="164.8" height="260.8" x="-82.4" y="-130.4" xlink:href="#G"/><use transform="rotate(180)" width="164.8" height="260.8" x="-82.4" y="-130.4" xlink:href="#G"/><use width="164.8" height="260.8" x="-82.4" y="-130.4" xlink:href="#H"/><use transform="rotate(180)" width="164.8" height="260.8" x="-82.4" y="-130.4" xlink:href="#H"/><use width="164.8" height="260.8" x="-82.4" y="-130.4" xlink:href="#I"/><use transform="rotate(180)" width="164.8" height="260.8" x="-82.4" y="-130.4" xlink:href="#I"/><use xlink:href="#B" height="32" width="32" x="-114.4" y="-156"/><use xlink:href="#C" height="26.769" width="26.769" x="-111.784" y="-119"/><use xlink:href="#C" height="55.68" width="55.68" x="-89.68" y="-132.16"/><g transform="rotate(180)"><use xlink:href="#B" height="32" width="32" x="-114.4" y="-156"/><use xlink:href="#C" height="26.769" width="26.769" x="-111.784" y="-119"/><use xlink:href="#C" height="55.68" width="55.68" x="-89.68" y="-132.16"/></g><use xlink:href="#A" stroke="#44f" fill="none"/></svg>