<svg xmlns="http://www.w3.org/2000/svg" width="216.946" height="224.285"  xmlns:v="https://vecta.io/nano"><g transform="matrix(1.271283 .088897 -.088897 1.271283 -77.73947 -7.65137)"><rect rx="20.485" ry="19.866" y="1.022" x="1.022" height="330.408" width="231.955" fill="#fff" stroke="#666" stroke-miterlimit="4.3" stroke-width="3.125" transform="matrix(.502265 0 0 .502265 114.68483 -.335728)"/><path d="M222.537 138.49a9.25 9.25 0 0 1-1.357 2.109c-.351.41-.737.787-1.128 1.158-.305.289-.616.577-.866.917-.169.23-.31.485-.377.764-.122.505.011 1.046.26 1.499a2.47 2.47 0 0 0 .563.704c.342.288.788.461 1.231.423.406-.035.785-.242 1.082-.526.262-.252.466-.566.596-.91.13.344.334.658.596.91.296.285.676.492 1.082.526.443.038.889-.135 1.231-.423a2.47 2.47 0 0 0 .563-.704c.249-.453.382-.995.26-1.499-.067-.279-.208-.534-.377-.764-.25-.34-.561-.628-.866-.917l-1.128-1.158a9.25 9.25 0 0 1-1.357-2.109m-3.78 10.158l1.551-.027.654 2.331 3.198-.056.599-2.353 1.551-.027-2.824 11.42-1.514.026zm2.802 4.404l1.108 3.884.977-3.921z" fill="#666"/></g><g transform="matrix(.997564 -.069756 .069756 .997564 54.228758 11.160275)"><rect transform="matrix(.64008 0 0 .64008 -54.749304 -2.399121)" width="231.955" height="330.408" x="1.022" y="1.022" ry="19.866" rx="20.485" fill="#fff" stroke="#666" stroke-width="3.125" stroke-miterlimit="4.3"/><path d="M-42.469 22.771l4.766 4.781-4.766 4.781-4.766-4.781zm-4.766-2.069l1.977-.035.729-2.998 4.076-.071.867 2.97 1.977-.035-4.105-14.419-1.929.034zm3.372-5.733l1.238-4.996 1.418 4.95z" fill="#666"/></g><g transform="matrix(.66252 0 0 .66252 31.04295 .322693)"><rect rx="20.485" ry="19.866" y="1.022" x="1.022" height="330.408" width="231.955" fill="#fff" stroke="#666" stroke-miterlimit="4.3" stroke-width="3.019"/><path fill="#41b883" d="M38.052 50.609l-5.007-8.673-5.007 8.673H11.363l21.682-37.555 21.682 37.555z"/><path fill="#34495e" d="M38.052 50.609l-5.007-8.673-5.007 8.673h-8.002l13.009-22.533 13.009 22.533z"/><path d="M134.126 102.554l-17.225 29.834-17.225-29.834H42.315l74.586 129.187 74.586-129.187z" fill="#41b883"/><path d="M134.282 102.554l-17.225 29.834-17.225-29.834H72.305l44.751 77.511 44.751-77.511z" fill="#34495e"/><path d="M206.148 281.682l-5.007 8.673-5.007-8.673h-16.675l21.682 37.555 21.682-37.555z" fill="#41b883"/><path d="M206.148 281.682l-5.007 8.673-5.007-8.673h-8.002l13.009 22.533 13.009-22.533z" fill="#34495e"/></g></svg>