<svg xmlns="http://www.w3.org/2000/svg" xmlns:xlink="http://www.w3.org/1999/xlink" viewBox="0 0 490.651 490.651" xmlns:v="https://vecta.io/nano"><g fill="#fff"><use xlink:href="#B"/><path d="M444.88 45.787L402.213 3.12c-4.16-4.16-10.923-4.16-15.083 0s-4.16 10.923 0 15.083l35.115 35.115-35.136 35.136c-4.16 4.16-4.16 10.923 0 15.083 2.091 2.069 4.821 3.115 7.552 3.115a10.71 10.71 0 0 0 7.552-3.115L444.88 60.87c4.16-4.161 4.16-10.923 0-15.083z"/><use xlink:href="#B" x="-277.333"/><path d="M47.077 53.317l35.115-35.115c4.16-4.16 4.16-10.923 0-15.083s-10.923-4.16-15.083 0L24.443 45.787c-4.16 4.16-4.16 10.923 0 15.083l42.667 42.667c2.091 2.069 4.821 3.115 7.552 3.115a10.56 10.56 0 0 0 7.531-3.136c4.16-4.16 4.16-10.923 0-15.083L47.077 53.317zm379.584 160c-8.768 0-16.939 2.667-23.723 7.211-5.845-16.597-21.696-28.544-40.277-28.544-8.768 0-16.939 2.667-23.723 7.211-5.845-16.597-21.696-28.544-40.277-28.544a42.32 42.32 0 0 0-21.333 5.739v-69.739c0-23.531-19.136-42.667-42.667-42.667s-42.667 19.136-42.667 42.667v181.333l-37.077-27.797c-21.973-16.491-53.248-14.293-72.725 5.163-12.48 12.48-12.48 32.768 0 45.248l151.915 151.936c18.133 18.133 42.261 28.117 67.904 28.117h49.984c64.683 0 117.333-52.629 117.333-117.333V255.984c0-23.531-19.136-42.667-42.667-42.667zm21.334 160c0 52.928-43.072 96-96 96h-49.984c-19.968 0-38.72-7.765-52.821-21.867L97.275 295.515c-4.16-4.16-4.16-10.923 0-15.083 6.613-6.592 15.445-9.984 24.32-9.984 7.211 0 14.464 2.24 20.544 6.805l54.123 40.597c3.243 2.432 7.595 2.795 11.179 1.003 3.605-1.813 5.888-5.504 5.888-9.536V106.651c0-11.755 9.557-21.333 21.333-21.333s21.333 9.579 21.333 21.333v160c0 5.888 4.779 10.667 10.667 10.667s10.667-4.779 10.667-10.667v-53.333c0-11.755 9.557-21.333 21.333-21.333s21.333 9.579 21.333 21.333v53.333c0 5.888 4.779 10.667 10.667 10.667s10.667-4.779 10.667-10.667v-32c0-11.755 9.557-21.333 21.333-21.333s21.333 9.579 21.333 21.333v32c0 5.888 4.779 10.667 10.667 10.667s10.667-4.779 10.667-10.667v-10.667c0-11.755 9.557-21.333 21.333-21.333s21.333 9.579 21.333 21.333v117.333z"/></g><defs ><path id="B" d="M437.328 42.651h-128c-5.888 0-10.667 4.779-10.667 10.667s4.779 10.667 10.667 10.667h128c5.888 0 10.667-4.779 10.667-10.667s-4.779-10.667-10.667-10.667z"/></defs></svg>